<svg xmlns="http://www.w3.org/2000/svg" version="1.1" xmlns:xlink="http://www.w3.org/1999/xlink" xmlns:svgjs="http://svgjs.dev/svgjs" viewBox="0 0 4.307733144815559 2.3584370405396813"><g transform="matrix(1,0,0,1,0.2632018536031737,0.398551853603174)"><g><path d=" M 0.383 0.41400000000000015 C 0.35000000000000003 0.41600000000000015 0.326 0.42100000000000015 0.295 0.42800000000000016 C 0.266 0.33300000000000013 0.066 0.34800000000000014 0.066 0.27600000000000013 C 0.066 0.1850000000000001 0.215 0.04700000000000015 0.308 0.04700000000000015 C 0.374 0.04700000000000015 0.34900000000000003 0.15100000000000013 0.383 0.15100000000000013 C 0.395 0.15100000000000013 0.402 0.13500000000000012 0.402 0.1250000000000001 C 0.402 0.05400000000000016 0.398 0.025000000000000133 0.324 0.002000000000000113 C 0.317 0.001000000000000112 0.31 1.1102230246251565e-16 0.303 1.1102230246251565e-16 C 0.17 1.1102230246251565e-16 0.01 0.16900000000000015 0.01 0.2650000000000001 C 0.01 0.3800000000000001 0.149 0.3730000000000001 0.226 0.42200000000000015 C 0.232 0.42700000000000016 0.244 0.44000000000000017 0.246 0.4490000000000002 C 0.17500000000000002 0.47300000000000014 0.056 0.5410000000000001 0.018000000000000002 0.6060000000000001 C 0.018000000000000002 0.6130000000000001 0.043000000000000003 0.6450000000000001 0.048 0.6530000000000001 C 0.054 0.6630000000000001 0.07 0.6670000000000001 0.08 0.6670000000000001 C 0.181 0.6670000000000001 0.28700000000000003 0.5570000000000002 0.302 0.46900000000000014 C 0.317 0.46400000000000013 0.394 0.4440000000000002 0.397 0.43900000000000017 L 0.394 0.43800000000000017 L 0.395 0.43500000000000016 C 0.395 0.43300000000000016 0.394 0.43200000000000016 0.391 0.42800000000000016 C 0.396 0.42700000000000016 0.401 0.42700000000000016 0.404 0.42500000000000016 C 0.4 0.42100000000000015 0.391 0.42100000000000015 0.385 0.42000000000000015 M 0.067 0.6130000000000001 C 0.073 0.5920000000000001 0.2 0.5050000000000001 0.23600000000000002 0.4970000000000001 C 0.23600000000000002 0.5000000000000001 0.234 0.5030000000000001 0.233 0.5050000000000001 C 0.215 0.5420000000000001 0.136 0.6150000000000001 0.079 0.6150000000000001 C 0.076 0.6150000000000001 0.07100000000000001 0.6140000000000001 0.067 0.6130000000000001 M 0.5949716796875 0.6260000000000001 C 0.6239716796875 0.6030000000000001 0.6809716796875 0.5210000000000001 0.6889716796875001 0.4920000000000001 C 0.6909716796875001 0.4890000000000001 0.6949716796875001 0.4860000000000001 0.6939716796875 0.48200000000000015 C 0.6969716796875001 0.48100000000000015 0.6959716796875 0.47700000000000015 0.6959716796875 0.47600000000000015 C 0.6999716796875 0.47000000000000014 0.7079716796875 0.45700000000000013 0.7069716796875001 0.4510000000000002 C 0.7109716796875001 0.4470000000000002 0.7139716796875 0.44000000000000017 0.7109716796875001 0.43700000000000017 L 0.7109716796875001 0.43500000000000016 L 0.7129716796875001 0.43400000000000016 L 0.7139716796875 0.43100000000000016 L 0.7139716796875 0.42900000000000016 C 0.7129716796875001 0.43000000000000016 0.7119716796875 0.43000000000000016 0.7119716796875 0.43000000000000016 C 0.7099716796875 0.43000000000000016 0.7119716796875 0.42700000000000016 0.7119716796875 0.42500000000000016 C 0.7079716796875 0.42500000000000016 0.7079716796875 0.42200000000000015 0.7089716796875001 0.42200000000000015 L 0.7079716796875 0.41900000000000015 C 0.7079716796875 0.42100000000000015 0.7069716796875001 0.42200000000000015 0.7059716796875 0.42500000000000016 L 0.7059716796875 0.42300000000000015 C 0.7069716796875001 0.42000000000000015 0.7069716796875001 0.41600000000000015 0.7069716796875001 0.41300000000000014 C 0.7089716796875001 0.40900000000000014 0.7059716796875 0.40900000000000014 0.7059716796875 0.40500000000000014 C 0.7059716796875 0.40400000000000014 0.7069716796875001 0.40300000000000014 0.7059716796875 0.40200000000000014 L 0.7059716796875 0.39700000000000013 C 0.6599716796874999 0.46900000000000014 0.6189716796875 0.5430000000000001 0.5799716796875 0.5930000000000002 C 0.5749716796875 0.5950000000000002 0.5729716796875 0.5970000000000002 0.5699716796875001 0.5970000000000002 L 0.5679716796875001 0.5970000000000002 C 0.5569716796874999 0.5630000000000002 0.5979716796875 0.41900000000000015 0.6119716796875 0.36700000000000016 C 0.6159716796875 0.35300000000000015 0.6119716796875 0.34500000000000014 0.6029716796875 0.34200000000000014 C 0.5969716796875 0.34000000000000014 0.5919716796875 0.34000000000000014 0.5869716796875 0.34000000000000014 C 0.5829716796875 0.34000000000000014 0.5779716796875001 0.34000000000000014 0.5729716796875 0.33800000000000013 L 0.5699716796875001 0.33900000000000013 L 0.5699716796875001 0.34200000000000014 C 0.5309716796875 0.3860000000000001 0.4559716796875 0.5090000000000001 0.4169716796875 0.5460000000000002 C 0.4169716796875 0.48200000000000015 0.4679716796875 0.39500000000000013 0.4679716796875 0.34300000000000014 C 0.4679716796875 0.33300000000000013 0.46197167968749997 0.3210000000000001 0.4529716796875 0.3180000000000001 C 0.4479716796875 0.3150000000000001 0.4419716796875 0.3140000000000001 0.4319716796875 0.3130000000000001 C 0.4309716796875 0.3130000000000001 0.4279716796875 0.3130000000000001 0.4249716796875 0.3130000000000001 C 0.4219716796875 0.3130000000000001 0.4199716796875 0.3130000000000001 0.4189716796875 0.3140000000000001 C 0.4199716796875 0.3150000000000001 0.4199716796875 0.3170000000000001 0.4199716796875 0.3180000000000001 L 0.4179716796875 0.3270000000000001 C 0.4009716796875 0.39700000000000013 0.3569716796875 0.47000000000000014 0.3569716796875 0.5430000000000001 C 0.3569716796875 0.5650000000000002 0.3639716796875 0.6000000000000001 0.3909716796875 0.5990000000000002 C 0.3949716796875 0.6010000000000002 0.4009716796875 0.6020000000000001 0.40697167968750003 0.6020000000000001 C 0.4439716796875 0.6020000000000001 0.5159716796875 0.4880000000000001 0.5319716796875 0.46300000000000013 C 0.5249716796875 0.4880000000000001 0.4989716796875 0.5690000000000002 0.5189716796875 0.6110000000000001 C 0.5259716796875 0.6260000000000001 0.5489716796874999 0.6350000000000001 0.5689716796875 0.6370000000000001 C 0.5849716796875 0.6310000000000001 0.5849716796875 0.6320000000000001 0.5949716796875 0.6260000000000001 M 0.7469833984375001 0.3140000000000001 L 0.7509833984375001 0.3120000000000001 L 0.7549833984375001 0.3120000000000001 L 0.7589833984375 0.30700000000000016 L 0.7589833984375 0.3120000000000001 C 0.7679833984375 0.30500000000000016 0.7959833984375 0.29100000000000015 0.7959833984375 0.27900000000000014 C 0.7959833984375 0.27900000000000014 0.7959833984375 0.27800000000000014 0.7949833984375 0.27700000000000014 L 0.7909833984375 0.27600000000000013 L 0.7909833984375 0.2660000000000001 C 0.7869833984375 0.2610000000000001 0.7829833984375 0.2590000000000001 0.7739833984375 0.2590000000000001 C 0.7689833984375 0.2590000000000001 0.7649833984375 0.2600000000000001 0.7589833984375 0.2610000000000001 C 0.7429833984375 0.27200000000000013 0.7349833984375 0.28500000000000014 0.7329833984375 0.30100000000000016 C 0.7329833984375 0.30300000000000016 0.7359833984375 0.30900000000000016 0.7379833984375 0.30900000000000016 L 0.7409833984375 0.30900000000000016 L 0.7469833984375001 0.3130000000000001 M 0.8989833984375 0.39800000000000013 L 0.8969833984375 0.40100000000000013 L 0.8939833984375 0.40200000000000014 C 0.8249833984375 0.4880000000000001 0.7549833984375001 0.5960000000000001 0.7229833984375 0.5940000000000001 C 0.7189833984375 0.5940000000000001 0.7179833984375 0.5930000000000002 0.7179833984375 0.5900000000000001 C 0.7079833984375 0.5420000000000001 0.7479833984375 0.4470000000000002 0.7659833984375 0.36800000000000016 C 0.7669833984375 0.36200000000000015 0.7649833984375 0.35200000000000015 0.7639833984375 0.34600000000000014 C 0.7599833984375 0.34200000000000014 0.7559833984375 0.33900000000000013 0.7479833984375 0.33800000000000013 C 0.7419833984375 0.33800000000000013 0.7389833984375 0.33400000000000013 0.7319833984375 0.33400000000000013 C 0.7309833984375 0.33400000000000013 0.7309833984375 0.33400000000000013 0.7299833984375 0.33400000000000013 L 0.7269833984375 0.33700000000000013 C 0.7179833984375 0.35800000000000015 0.6629833984375 0.47700000000000015 0.6589833984375 0.5470000000000002 C 0.6569833984375 0.6010000000000002 0.6889833984375 0.6240000000000001 0.7199833984375 0.6320000000000001 C 0.7379833984375 0.6320000000000001 0.7479833984375 0.6240000000000001 0.7629833984375 0.6170000000000001 C 0.8109833984375 0.5760000000000002 0.8459833984375 0.5290000000000001 0.8879833984375001 0.46500000000000014 C 0.8859833984375001 0.46500000000000014 0.8879833984375001 0.46400000000000013 0.8879833984375001 0.46300000000000013 C 0.8909833984375 0.4550000000000001 0.8939833984375 0.44100000000000017 0.8979833984375 0.43300000000000016 L 0.8969833984375 0.43200000000000016 C 0.8979833984375 0.42900000000000016 0.8989833984375 0.42600000000000016 0.8989833984375 0.42300000000000015 C 0.8989833984375 0.41500000000000015 0.8979833984375 0.40700000000000014 0.8989833984375 0.39800000000000013 M 0.77697119140625 0.23400000000000015 C 0.83097119140625 0.23400000000000015 0.88497119140625 0.22600000000000015 0.93797119140625 0.21900000000000014 C 0.89597119140625 0.33900000000000013 0.84997119140625 0.46300000000000013 0.84197119140625 0.5550000000000002 C 0.84197119140625 0.5590000000000002 0.84297119140625 0.5770000000000002 0.84197119140625 0.5780000000000002 C 0.83997119140625 0.5910000000000002 0.84597119140625 0.6080000000000001 0.84997119140625 0.6210000000000001 C 0.86297119140625 0.6350000000000001 0.87297119140625 0.6540000000000001 0.89397119140625 0.6540000000000001 C 0.91397119140625 0.6540000000000001 0.92897119140625 0.6410000000000001 0.94497119140625 0.6360000000000001 L 0.94697119140625 0.6320000000000001 C 0.95097119140625 0.6310000000000001 0.95297119140625 0.6290000000000001 0.95597119140625 0.6240000000000001 C 0.97897119140625 0.6010000000000002 1.02797119140625 0.5430000000000001 1.04097119140625 0.5190000000000001 L 1.04097119140625 0.5150000000000001 L 1.03797119140625 0.5210000000000001 C 1.03797119140625 0.5180000000000001 1.03997119140625 0.5150000000000001 1.04097119140625 0.5120000000000001 L 1.03397119140625 0.5190000000000001 C 1.03597119140625 0.5150000000000001 1.03997119140625 0.5120000000000001 1.04097119140625 0.5090000000000001 L 1.03397119140625 0.5180000000000001 C 1.03797119140625 0.5070000000000001 1.04797119140625 0.4950000000000001 1.04997119140625 0.4860000000000001 L 1.05597119140625 0.47700000000000015 C 1.06197119140625 0.45900000000000013 1.06797119140625 0.46500000000000014 1.07597119140625 0.4470000000000002 L 1.07197119140625 0.4470000000000002 C 1.07097119140625 0.4450000000000002 1.06497119140625 0.43100000000000016 1.06497119140625 0.42800000000000016 L 1.06697119140625 0.42600000000000016 L 1.06497119140625 0.42000000000000015 L 1.06197119140625 0.41700000000000015 C 1.01697119140625 0.4870000000000001 0.94497119140625 0.5840000000000002 0.90797119140625 0.6180000000000001 L 0.89797119140625 0.6190000000000001 L 0.89597119140625 0.6170000000000001 C 0.89397119140625 0.6110000000000001 0.89297119140625 0.6030000000000001 0.89297119140625 0.5970000000000002 C 0.89297119140625 0.5900000000000001 0.89397119140625 0.5810000000000002 0.89397119140625 0.5730000000000002 C 0.89697119140625 0.5410000000000001 0.90797119140625 0.46500000000000014 0.92897119140625 0.42000000000000015 C 0.94597119140625 0.3830000000000001 0.98297119140625 0.28400000000000014 1.00097119140625 0.21300000000000013 C 1.02197119140625 0.21200000000000013 1.04097119140625 0.21200000000000013 1.05897119140625 0.21200000000000013 C 1.09597119140625 0.21200000000000013 1.12097119140625 0.21900000000000014 1.11997119140625 0.22400000000000014 L 1.12097119140625 0.22400000000000014 C 1.1349711914062501 0.1860000000000001 1.08397119140625 0.17700000000000016 1.02797119140625 0.17700000000000016 C 1.02197119140625 0.17700000000000016 1.01597119140625 0.17700000000000016 1.00997119140625 0.17700000000000016 C 1.01097119140625 0.16800000000000015 1.01097119140625 0.15900000000000014 1.01097119140625 0.15200000000000014 C 1.01097119140625 0.14600000000000013 1.00997119140625 0.13900000000000012 1.00797119140625 0.13300000000000012 L 1.00097119140625 0.1250000000000001 C 0.99697119140625 0.12400000000000011 0.99497119140625 0.12300000000000011 0.99197119140625 0.12300000000000011 C 0.99097119140625 0.12300000000000011 0.98997119140625 0.12300000000000011 0.98897119140625 0.12300000000000011 C 0.98697119140625 0.12300000000000011 0.97897119140625 0.12200000000000011 0.97397119140625 0.12200000000000011 C 0.97297119140625 0.12200000000000011 0.97197119140625 0.12200000000000011 0.97097119140625 0.12200000000000011 C 0.96497119140625 0.14100000000000013 0.95797119140625 0.16200000000000014 0.95097119140625 0.18100000000000016 C 0.93197119140625 0.1830000000000001 0.91497119140625 0.1860000000000001 0.90497119140625 0.1870000000000001 C 0.86197119140625 0.19200000000000012 0.80497119140625 0.19800000000000012 0.75897119140625 0.19800000000000012 C 0.73297119140625 0.19800000000000012 0.71097119140625 0.19600000000000012 0.69797119140625 0.19100000000000011 C 0.69197119140625 0.1880000000000001 0.69197119140625 0.19100000000000011 0.68697119140625 0.1830000000000001 C 0.68697119140625 0.1830000000000001 0.68797119140625 0.17900000000000016 0.68597119140625 0.17900000000000016 C 0.68597119140625 0.17900000000000016 0.68497119140625 0.18000000000000016 0.68397119140625 0.18100000000000016 L 0.68397119140625 0.1830000000000001 C 0.6669711914062499 0.23300000000000015 0.74897119140625 0.23400000000000015 0.77397119140625 0.23400000000000015 C 0.77497119140625 0.23400000000000015 0.77597119140625 0.23400000000000015 0.77697119140625 0.23400000000000015 M 1.29697314453125 0.40300000000000014 C 1.28597314453125 0.40900000000000014 1.26397314453125 0.4460000000000002 1.25597314453125 0.45800000000000013 C 1.22797314453125 0.4990000000000001 1.13697314453125 0.6080000000000001 1.08997314453125 0.6080000000000001 C 1.03397314453125 0.6080000000000001 1.07797314453125 0.47400000000000014 1.09097314453125 0.4490000000000002 C 1.09797314453125 0.4480000000000002 1.20897314453125 0.4440000000000002 1.20897314453125 0.35300000000000015 C 1.20897314453125 0.3300000000000001 1.19897314453125 0.3230000000000001 1.1789731445312501 0.3170000000000001 C 1.17297314453125 0.3140000000000001 1.14797314453125 0.30600000000000016 1.14097314453125 0.30600000000000016 C 1.13697314453125 0.30600000000000016 1.12397314453125 0.30600000000000016 1.12297314453125 0.30800000000000016 L 1.12097314453125 0.3110000000000001 C 1.06897314453125 0.35100000000000015 1.01397314453125 0.46600000000000014 1.00997314453125 0.5350000000000001 C 1.00697314453125 0.5980000000000001 1.03097314453125 0.6360000000000001 1.09497314453125 0.6450000000000001 C 1.09697314453125 0.6450000000000001 1.09897314453125 0.6460000000000001 1.10197314453125 0.6460000000000001 C 1.15897314453125 0.6460000000000001 1.25797314453125 0.5370000000000001 1.28297314453125 0.47100000000000014 C 1.28697314453125 0.46100000000000013 1.29697314453125 0.4500000000000002 1.29797314453125 0.43700000000000017 L 1.29497314453125 0.43400000000000016 C 1.29497314453125 0.43400000000000016 1.29297314453125 0.43300000000000016 1.29297314453125 0.43200000000000016 C 1.29297314453125 0.42700000000000016 1.29797314453125 0.42000000000000015 1.29797314453125 0.41400000000000015 L 1.29497314453125 0.41000000000000014 C 1.29697314453125 0.40800000000000014 1.29697314453125 0.40500000000000014 1.29697314453125 0.40300000000000014 M 1.1569731445312499 0.34400000000000014 C 1.17797314453125 0.36500000000000016 1.15097314453125 0.40100000000000013 1.10897314453125 0.41000000000000014 C 1.12097314453125 0.3890000000000001 1.14897314453125 0.34900000000000014 1.1569731445312499 0.34400000000000014" fill="#404040" fill-rule="nonzero"></path></g><g><path d=" M 2.971336273546712 0.41400000000000015 C 2.938336273546712 0.41600000000000015 2.914336273546712 0.42100000000000015 2.883336273546712 0.42800000000000016 C 2.854336273546712 0.33300000000000013 2.6543362735467118 0.34800000000000014 2.6543362735467118 0.27600000000000013 C 2.6543362735467118 0.1850000000000001 2.8033362735467118 0.04700000000000015 2.8963362735467117 0.04700000000000015 C 2.962336273546712 0.04700000000000015 2.937336273546712 0.15100000000000013 2.971336273546712 0.15100000000000013 C 2.983336273546712 0.15100000000000013 2.990336273546712 0.13500000000000012 2.990336273546712 0.1250000000000001 C 2.990336273546712 0.05400000000000016 2.986336273546712 0.025000000000000133 2.9123362735467118 0.002000000000000113 C 2.905336273546712 0.001000000000000112 2.898336273546712 1.1102230246251565e-16 2.891336273546712 1.1102230246251565e-16 C 2.758336273546712 1.1102230246251565e-16 2.5983362735467117 0.16900000000000015 2.5983362735467117 0.2650000000000001 C 2.5983362735467117 0.3800000000000001 2.737336273546712 0.3730000000000001 2.814336273546712 0.42200000000000015 C 2.820336273546712 0.42700000000000016 2.832336273546712 0.44000000000000017 2.834336273546712 0.4490000000000002 C 2.7633362735467117 0.47300000000000014 2.644336273546712 0.5410000000000001 2.6063362735467117 0.6060000000000001 C 2.6063362735467117 0.6130000000000001 2.631336273546712 0.6450000000000001 2.636336273546712 0.6530000000000001 C 2.6423362735467117 0.6630000000000001 2.6583362735467118 0.6670000000000001 2.668336273546712 0.6670000000000001 C 2.769336273546712 0.6670000000000001 2.875336273546712 0.5570000000000002 2.890336273546712 0.46900000000000014 C 2.905336273546712 0.46400000000000013 2.982336273546712 0.4440000000000002 2.9853362735467117 0.43900000000000017 L 2.982336273546712 0.43800000000000017 L 2.983336273546712 0.43500000000000016 C 2.983336273546712 0.43300000000000016 2.982336273546712 0.43200000000000016 2.979336273546712 0.42800000000000016 C 2.984336273546712 0.42700000000000016 2.989336273546712 0.42700000000000016 2.992336273546712 0.42500000000000016 C 2.988336273546712 0.42100000000000015 2.979336273546712 0.42100000000000015 2.973336273546712 0.42000000000000015 M 2.655336273546712 0.6130000000000001 C 2.661336273546712 0.5920000000000001 2.788336273546712 0.5050000000000001 2.824336273546712 0.4970000000000001 C 2.824336273546712 0.5000000000000001 2.822336273546712 0.5030000000000001 2.821336273546712 0.5050000000000001 C 2.8033362735467118 0.5420000000000001 2.724336273546712 0.6150000000000001 2.667336273546712 0.6150000000000001 C 2.664336273546712 0.6150000000000001 2.659336273546712 0.6140000000000001 2.655336273546712 0.6130000000000001 M 3.177307953234212 0.21800000000000014 C 3.177307953234212 0.19700000000000012 3.1343079532342117 0.19100000000000011 3.107307953234212 0.1880000000000001 C 3.109307953234212 0.17400000000000015 3.111307953234212 0.16200000000000014 3.1103079532342117 0.15300000000000014 C 3.1103079532342117 0.14600000000000013 3.109307953234212 0.13900000000000012 3.108307953234212 0.13300000000000012 L 3.101307953234212 0.1250000000000001 C 3.097307953234212 0.12400000000000011 3.094307953234212 0.12300000000000011 3.092307953234212 0.12300000000000011 C 3.091307953234212 0.12300000000000011 3.0903079532342117 0.12300000000000011 3.089307953234212 0.12300000000000011 C 3.086307953234212 0.12300000000000011 3.078307953234212 0.12200000000000011 3.074307953234212 0.12200000000000011 C 3.073307953234212 0.12200000000000011 3.072307953234212 0.12200000000000011 3.071307953234212 0.12200000000000011 C 3.063307953234212 0.14400000000000013 3.056307953234212 0.16700000000000015 3.048307953234212 0.1890000000000001 C 3.003307953234212 0.19400000000000012 2.958307953234212 0.20400000000000013 2.917307953234212 0.20400000000000013 L 2.891307953234212 0.20100000000000012 L 2.891307953234212 0.20900000000000013 C 2.891307953234212 0.21200000000000013 2.894307953234212 0.22300000000000014 2.898307953234212 0.22700000000000015 C 2.903307953234212 0.23000000000000015 2.9123079532342118 0.23600000000000015 2.933307953234212 0.23600000000000015 C 2.967307953234212 0.23600000000000015 3.0013079532342117 0.23300000000000015 3.035307953234212 0.22800000000000015 C 2.994307953234212 0.34400000000000014 2.949307953234212 0.46500000000000014 2.941307953234212 0.5550000000000002 C 2.941307953234212 0.5590000000000002 2.942307953234212 0.5770000000000002 2.941307953234212 0.5780000000000002 C 2.940307953234212 0.5910000000000002 2.946307953234212 0.6080000000000001 2.949307953234212 0.6210000000000001 C 2.963307953234212 0.6350000000000001 2.972307953234212 0.6540000000000001 2.994307953234212 0.6540000000000001 C 3.0133079532342117 0.6540000000000001 3.0293079532342118 0.6410000000000001 3.044307953234212 0.6360000000000001 L 3.047307953234212 0.6320000000000001 C 3.050307953234212 0.6310000000000001 3.053307953234212 0.6290000000000001 3.055307953234212 0.6250000000000001 C 3.061307953234212 0.6180000000000001 3.080307953234212 0.5970000000000002 3.085307953234212 0.5910000000000002 C 3.091307953234212 0.5830000000000002 3.135307953234212 0.5280000000000001 3.140307953234212 0.5190000000000001 L 3.140307953234212 0.5160000000000001 L 3.1383079532342117 0.5210000000000001 C 3.1383079532342117 0.5180000000000001 3.139307953234212 0.5160000000000001 3.140307953234212 0.5120000000000001 L 3.133307953234212 0.5190000000000001 C 3.135307953234212 0.5160000000000001 3.139307953234212 0.5120000000000001 3.140307953234212 0.5090000000000001 L 3.133307953234212 0.5180000000000001 C 3.1383079532342117 0.5070000000000001 3.147307953234212 0.4950000000000001 3.1503079532342118 0.4860000000000001 L 3.156307953234212 0.47900000000000015 C 3.1623079532342118 0.45900000000000013 3.168307953234212 0.46500000000000014 3.175307953234212 0.4470000000000002 L 3.171307953234212 0.4470000000000002 C 3.1703079532342118 0.4450000000000002 3.164307953234212 0.43100000000000016 3.164307953234212 0.42800000000000016 L 3.167307953234212 0.42600000000000016 L 3.1623079532342118 0.41700000000000015 C 3.116307953234212 0.4870000000000001 3.044307953234212 0.5840000000000002 3.007307953234212 0.6180000000000001 L 2.9973079532342117 0.6190000000000001 L 2.995307953234212 0.6170000000000001 C 2.994307953234212 0.6110000000000001 2.9933079532342117 0.6030000000000001 2.9933079532342117 0.5970000000000002 C 2.9933079532342117 0.5900000000000001 2.994307953234212 0.5810000000000002 2.994307953234212 0.5730000000000002 C 2.996307953234212 0.5410000000000001 3.007307953234212 0.46500000000000014 3.0293079532342118 0.42000000000000015 C 3.044307953234212 0.3840000000000001 3.080307953234212 0.29100000000000015 3.099307953234212 0.22200000000000014 C 3.1263079532342117 0.22200000000000014 3.152307953234212 0.22200000000000014 3.179307953234212 0.22900000000000015 C 3.180307953234212 0.22700000000000015 3.177307953234212 0.21900000000000014 3.177307953234212 0.21800000000000014 M 3.368333343859212 0.3780000000000001 C 3.3753333438592117 0.35300000000000015 3.385333343859212 0.33200000000000013 3.385333343859212 0.30700000000000016 C 3.385333343859212 0.28500000000000014 3.358333343859212 0.28100000000000014 3.341333343859212 0.28100000000000014 C 3.3383333438592118 0.28100000000000014 3.335333343859212 0.28300000000000014 3.333333343859212 0.28500000000000014 L 3.335333343859212 0.29000000000000015 C 3.3263333438592118 0.30700000000000016 3.313333343859212 0.3240000000000001 3.3023333438592117 0.33800000000000013 C 3.289333343859212 0.3200000000000001 3.269333343859212 0.3180000000000001 3.248333343859212 0.3180000000000001 C 3.179333343859212 0.3180000000000001 3.098333343859212 0.47900000000000015 3.103333343859212 0.5420000000000001 C 3.105333343859212 0.5770000000000002 3.118333343859212 0.6060000000000001 3.158333343859212 0.6060000000000001 C 3.195333343859212 0.6060000000000001 3.271333343859212 0.47300000000000014 3.296333343859212 0.43300000000000016 L 3.297333343859212 0.43300000000000016 C 3.287333343859212 0.46900000000000014 3.279333343859212 0.5090000000000001 3.279333343859212 0.5460000000000002 C 3.279333343859212 0.5790000000000002 3.285333343859212 0.6200000000000001 3.319333343859212 0.6330000000000001 C 3.321333343859212 0.6350000000000001 3.323333343859212 0.6350000000000001 3.327333343859212 0.6370000000000001 C 3.332333343859212 0.6390000000000001 3.3343333438592118 0.6390000000000001 3.341333343859212 0.6390000000000001 C 3.3913333438592117 0.6390000000000001 3.477333343859212 0.5000000000000001 3.495333343859212 0.45800000000000013 C 3.497333343859212 0.45700000000000013 3.509333343859212 0.42700000000000016 3.5083333438592117 0.42200000000000015 L 3.5083333438592117 0.41900000000000015 L 3.505333343859212 0.41600000000000015 L 3.506333343859212 0.41100000000000014 C 3.501333343859212 0.41300000000000014 3.5083333438592117 0.40200000000000014 3.505333343859212 0.39900000000000013 C 3.503333343859212 0.39700000000000013 3.506333343859212 0.3840000000000001 3.503333343859212 0.3810000000000001 L 3.464333343859212 0.44300000000000017 C 3.440333343859212 0.47900000000000015 3.364333343859212 0.5990000000000002 3.337333343859212 0.5990000000000002 C 3.3343333438592118 0.5990000000000002 3.331333343859212 0.5760000000000002 3.331333343859212 0.5720000000000002 C 3.331333343859212 0.5050000000000001 3.349333343859212 0.44100000000000017 3.368333343859212 0.3780000000000001 M 3.152333343859212 0.5660000000000002 L 3.151333343859212 0.5590000000000002 C 3.151333343859212 0.5040000000000001 3.2013333438592118 0.40700000000000014 3.242333343859212 0.36800000000000016 C 3.245333343859212 0.36500000000000016 3.254333343859212 0.35900000000000015 3.260333343859212 0.35900000000000015 C 3.267333343859212 0.35900000000000015 3.2743333438592117 0.36800000000000016 3.277333343859212 0.3730000000000001 C 3.238333343859212 0.43100000000000016 3.191333343859212 0.5070000000000001 3.152333343859212 0.5660000000000002 M 3.689322113390462 0.5940000000000001 C 3.694322113390462 0.5780000000000002 3.702322113390462 0.5470000000000002 3.707322113390462 0.5310000000000001 C 3.708322113390462 0.5290000000000001 3.745322113390462 0.4990000000000001 3.745322113390462 0.4950000000000001 L 3.708322113390462 0.5250000000000001 C 3.707322113390462 0.5210000000000001 3.723322113390462 0.5090000000000001 3.726322113390462 0.5060000000000001 C 3.795322113390462 0.4490000000000002 3.792322113390462 0.4550000000000001 3.821322113390462 0.43100000000000016 C 3.810322113390462 0.43700000000000017 3.7853221133904618 0.45700000000000013 3.767322113390462 0.47000000000000014 C 3.7773221133904618 0.45800000000000013 3.811322113390462 0.43400000000000016 3.8263221133904617 0.42100000000000015 L 3.832322113390462 0.41400000000000015 C 3.832322113390462 0.41300000000000014 3.832322113390462 0.41000000000000014 3.829322113390462 0.41000000000000014 L 3.828322113390462 0.41000000000000014 C 3.8263221133904617 0.41300000000000014 3.821322113390462 0.40800000000000014 3.820322113390462 0.40700000000000014 C 3.817322113390462 0.40700000000000014 3.816322113390462 0.40700000000000014 3.815322113390462 0.40800000000000014 L 3.816322113390462 0.40400000000000014 C 3.771322113390462 0.42600000000000016 3.755322113390462 0.44100000000000017 3.715322113390462 0.47400000000000014 C 3.721322113390462 0.4440000000000002 3.726322113390462 0.3860000000000001 3.726322113390462 0.33600000000000013 C 3.726322113390462 0.33200000000000013 3.726322113390462 0.3300000000000001 3.7253221133904617 0.3270000000000001 C 3.7173221133904617 0.3200000000000001 3.713322113390462 0.3180000000000001 3.7093221133904617 0.3170000000000001 C 3.705322113390462 0.3130000000000001 3.695322113390462 0.3120000000000001 3.689322113390462 0.3120000000000001 C 3.679322113390462 0.3120000000000001 3.670322113390462 0.3150000000000001 3.6643221133904618 0.3230000000000001 L 3.665322113390462 0.33200000000000013 C 3.623322113390462 0.3850000000000001 3.5473221133904618 0.5010000000000001 3.484322113390462 0.5790000000000002 L 3.481322113390462 0.5770000000000002 C 3.478322113390462 0.5170000000000001 3.553322113390462 0.37100000000000016 3.553322113390462 0.3230000000000001 C 3.553322113390462 0.30600000000000016 3.538322113390462 0.30200000000000016 3.522322113390462 0.30200000000000016 C 3.5193221133904617 0.30200000000000016 3.5153221133904617 0.30300000000000016 3.5113221133904617 0.30500000000000016 C 3.513322113390462 0.3190000000000001 3.5033221133904617 0.33300000000000013 3.498322113390462 0.34700000000000014 L 3.461322113390462 0.43900000000000017 C 3.444322113390462 0.48200000000000015 3.425322113390462 0.5300000000000001 3.425322113390462 0.5750000000000002 C 3.425322113390462 0.5950000000000002 3.455322113390462 0.6240000000000001 3.4753221133904617 0.6240000000000001 C 3.4953221133904617 0.6240000000000001 3.520322113390462 0.6060000000000001 3.532322113390462 0.5930000000000002 C 3.583322113390462 0.5350000000000001 3.654322113390462 0.43100000000000016 3.6723221133904618 0.40200000000000014 C 3.667322113390462 0.4520000000000002 3.663322113390462 0.4860000000000001 3.654322113390462 0.5210000000000001 C 3.647322113390462 0.5310000000000001 3.6283221133904617 0.5490000000000002 3.610322113390462 0.5660000000000002 C 3.555322113390462 0.6190000000000001 3.496322113390462 0.7150000000000002 3.474322113390462 0.7740000000000001 C 3.4753221133904617 0.7790000000000001 3.466322113390462 0.7990000000000002 3.466322113390462 0.8060000000000002 C 3.466322113390462 0.8090000000000002 3.4953221133904617 0.8340000000000002 3.496322113390462 0.8360000000000002 C 3.498322113390462 0.8370000000000002 3.502322113390462 0.8410000000000002 3.502322113390462 0.8410000000000002 C 3.508322113390462 0.8470000000000002 3.5193221133904617 0.8530000000000002 3.5273221133904618 0.8530000000000002 C 3.529322113390462 0.8530000000000002 3.533322113390462 0.8510000000000002 3.537322113390462 0.8510000000000002 C 3.540322113390462 0.8520000000000001 3.553322113390462 0.8410000000000002 3.557322113390462 0.8370000000000002 C 3.627322113390462 0.7810000000000001 3.667322113390462 0.6780000000000002 3.689322113390462 0.5940000000000001 M 3.5113221133904617 0.8060000000000002 C 3.509322113390462 0.8060000000000002 3.508322113390462 0.8050000000000002 3.508322113390462 0.8030000000000002 C 3.514322113390462 0.7550000000000001 3.605322113390462 0.6180000000000001 3.6363221133904617 0.5960000000000001 L 3.6363221133904617 0.5970000000000002 C 3.6283221133904617 0.6270000000000001 3.556322113390462 0.8060000000000002 3.5113221133904617 0.8060000000000002 M 3.504322113390462 0.7930000000000001 C 3.505322113390462 0.7710000000000001 3.537322113390462 0.7150000000000002 3.553322113390462 0.7010000000000002 C 3.536322113390462 0.7270000000000001 3.512322113390462 0.7620000000000001 3.504322113390462 0.7930000000000001" fill="#404040" fill-rule="nonzero"></path></g><g><path d=" M 1.4962487845598142 1.6266833333333333 C 1.4969154512264808 1.6266833333333333 1.5169154512264809 1.6680166666666667 1.5285821178931476 1.6760166666666667 C 1.5302487845598143 1.67735 1.5345821178931476 1.6780166666666667 1.537915451226481 1.6780166666666667 C 1.541915451226481 1.6780166666666667 1.5449154512264809 1.6770166666666666 1.5425821178931476 1.6740166666666667 C 1.5362487845598143 1.6650166666666666 1.525915451226481 1.64735 1.5229154512264809 1.6406833333333333 C 1.5202487845598143 1.63435 1.5029154512264808 1.6056833333333334 1.5035821178931477 1.6026833333333332 C 1.5045821178931476 1.59935 1.5362487845598143 1.5776833333333333 1.5362487845598143 1.5386833333333334 C 1.5362487845598143 1.5166833333333334 1.5209154512264809 1.50135 1.5072487845598141 1.4960166666666668 C 1.5042487845598143 1.4950166666666667 1.5042487845598143 1.48935 1.5009154512264808 1.4886833333333334 C 1.4995821178931477 1.48835 1.4985821178931475 1.48835 1.4972487845598144 1.48835 C 1.493915451226481 1.48835 1.4909154512264808 1.48935 1.4895821178931477 1.4910166666666667 C 1.4875821178931476 1.4946833333333334 1.4872487845598144 1.5046833333333334 1.4872487845598144 1.5090166666666667 C 1.4825821178931475 1.5626833333333332 1.4795821178931476 1.61735 1.4762487845598142 1.6710166666666666 C 1.4755821178931476 1.6810166666666666 1.4749154512264808 1.7046833333333333 1.4869154512264808 1.7046833333333333 C 1.4872487845598144 1.7046833333333333 1.487915451226481 1.7046833333333333 1.4882487845598142 1.7046833333333333 C 1.4929154512264808 1.7046833333333333 1.4952487845598144 1.70435 1.4952487845598144 1.69835 C 1.4952487845598144 1.6906833333333333 1.4935821178931477 1.6840166666666667 1.4935821178931477 1.6760166666666667 C 1.4935821178931477 1.6620166666666667 1.4952487845598144 1.6416833333333334 1.4962487845598142 1.6266833333333333 M 1.4992487845598144 1.58135 C 1.5012487845598144 1.5586833333333334 1.5022487845598143 1.5360166666666666 1.5049154512264808 1.5130166666666667 C 1.513915451226481 1.5160166666666666 1.5192487845598142 1.52735 1.5192487845598142 1.5386833333333334 C 1.5192487845598142 1.55335 1.5109154512264809 1.5730166666666667 1.4992487845598144 1.58135 M 1.570740646538981 1.5096833333333333 C 1.5624073132056475 1.51435 1.5630739798723143 1.51435 1.5620739798723142 1.5230166666666667 C 1.5590739798723143 1.55535 1.5554073132056476 1.58835 1.5530739798723143 1.6206833333333333 C 1.5514073132056476 1.64135 1.550740646538981 1.6626833333333333 1.550740646538981 1.6836833333333334 C 1.550740646538981 1.68835 1.5520739798723142 1.6960166666666667 1.5584073132056475 1.6960166666666667 C 1.5754073132056476 1.6956833333333334 1.5867406465389808 1.68635 1.6007406465389808 1.68435 C 1.6047406465389809 1.6840166666666667 1.6074073132056477 1.6826833333333333 1.6074073132056477 1.6786833333333333 C 1.6074073132056477 1.6720166666666667 1.599740646538981 1.6700166666666667 1.5940739798723143 1.6700166666666667 C 1.5864073132056475 1.6700166666666667 1.5774073132056476 1.6750166666666666 1.5694073132056476 1.67735 C 1.5690739798723143 1.6540166666666667 1.569740646538981 1.63335 1.572740646538981 1.6106833333333332 C 1.5734073132056476 1.6060166666666666 1.5724073132056475 1.60135 1.5764073132056475 1.60035 C 1.5827406465389808 1.5986833333333332 1.5927406465389808 1.59835 1.5990739798723144 1.5976833333333333 C 1.6010739798723144 1.59735 1.603740646538981 1.5960166666666666 1.605740646538981 1.5960166666666666 C 1.6084073132056476 1.5950166666666667 1.6107406465389809 1.59135 1.6107406465389809 1.5886833333333332 C 1.6107406465389809 1.5850166666666667 1.6080739798723143 1.5840166666666666 1.6040739798723143 1.5840166666666666 L 1.575740646538981 1.5830166666666667 C 1.5774073132056476 1.5690166666666667 1.5780739798723142 1.5443500000000001 1.5810739798723144 1.5286833333333334 C 1.581740646538981 1.5256833333333333 1.5830739798723144 1.52335 1.5830739798723144 1.5206833333333334 C 1.5830739798723144 1.51835 1.5804073132056475 1.5160166666666666 1.5790739798723143 1.5146833333333334 L 1.607740646538981 1.5130166666666667 C 1.6114073132056477 1.5130166666666667 1.6140739798723143 1.51135 1.613740646538981 1.50735 C 1.6130739798723144 1.4976833333333333 1.6024073132056476 1.4956833333333333 1.5924073132056475 1.4956833333333333 C 1.5864073132056475 1.4956833333333333 1.580740646538981 1.49635 1.5770739798723143 1.4966833333333334 C 1.5730739798723143 1.4970166666666667 1.5714073132056476 1.4990166666666667 1.5700739798723142 1.50235 M 1.6285813040910642 1.67435 C 1.6269146374243975 1.6740166666666667 1.6225813040910642 1.67935 1.6225813040910642 1.6810166666666666 C 1.623247970757731 1.6900166666666667 1.631247970757731 1.6966833333333333 1.6402479707577309 1.6966833333333333 C 1.6635813040910643 1.6940166666666667 1.6712479707577308 1.6550166666666666 1.6695813040910643 1.6356833333333334 C 1.6665813040910642 1.6036833333333333 1.6422479707577309 1.5840166666666666 1.6402479707577309 1.56535 C 1.6385813040910642 1.5476833333333333 1.6545813040910642 1.5206833333333334 1.6735813040910643 1.52035 C 1.674247970757731 1.5206833333333334 1.6749146374243975 1.5210166666666667 1.6755813040910643 1.5210166666666667 C 1.680247970757731 1.5210166666666667 1.6805813040910642 1.5120166666666666 1.6799146374243976 1.5096833333333333 C 1.678247970757731 1.5040166666666668 1.6725813040910642 1.50335 1.6675813040910643 1.50335 C 1.6385813040910642 1.5056833333333333 1.6222479707577309 1.54635 1.6242479707577309 1.56735 C 1.6262479707577309 1.5926833333333332 1.6505813040910642 1.6106833333333332 1.6529146374243975 1.6376833333333334 C 1.6549146374243975 1.6576833333333334 1.6475813040910643 1.67835 1.6369146374243975 1.67935 C 1.6335813040910643 1.6796833333333334 1.6319146374243976 1.67735 1.6285813040910642 1.67435 M 1.7547411348202309 1.6096833333333334 C 1.7584078014868976 1.5650166666666667 1.7574078014868975 1.5350166666666667 1.7480744681535643 1.5140166666666666 C 1.7467411348202309 1.51035 1.7447411348202309 1.5076833333333333 1.7434078014868974 1.5070166666666667 C 1.7384078014868976 1.5036833333333333 1.7344078014868975 1.5030166666666667 1.7297411348202307 1.5020166666666666 C 1.7280744681535642 1.5020166666666666 1.7270744681535641 1.50235 1.7257411348202307 1.50235 C 1.7247411348202308 1.50235 1.723741134820231 1.5020166666666666 1.7220744681535642 1.5010166666666667 C 1.7207411348202308 1.5000166666666668 1.7194078014868974 1.49935 1.7180744681535642 1.49935 C 1.7120744681535642 1.49935 1.707741134820231 1.5106833333333334 1.7064078014868975 1.51635 C 1.7004078014868975 1.5410166666666667 1.6960744681535642 1.56435 1.693741134820231 1.58935 C 1.6914078014868974 1.6160166666666667 1.6894078014868974 1.6396833333333334 1.6927411348202308 1.6676833333333334 C 1.6934078014868974 1.67335 1.693741134820231 1.67935 1.6964078014868975 1.6846833333333333 C 1.7000744681535642 1.6920166666666667 1.7074078014868974 1.6986833333333333 1.7160744681535642 1.6986833333333333 C 1.7444078014868976 1.6986833333333333 1.7527411348202309 1.62935 1.7547411348202309 1.6096833333333334 M 1.7154078014868974 1.6820166666666667 C 1.7007411348202308 1.6633499999999999 1.7164078014868975 1.5276833333333333 1.7280744681535642 1.5120166666666666 C 1.7424078014868976 1.5250166666666667 1.7397411348202307 1.5890166666666667 1.7377411348202307 1.60735 C 1.7347411348202308 1.6300166666666667 1.7287411348202308 1.6600166666666667 1.7180744681535642 1.6806833333333333 C 1.7174078014868974 1.6816833333333334 1.7167411348202308 1.6830166666666666 1.7164078014868975 1.6830166666666666 C 1.7160744681535642 1.6830166666666666 1.715741134820231 1.6826833333333333 1.7154078014868974 1.6820166666666667 M 1.7735743053931474 1.50735 C 1.7735743053931474 1.5096833333333333 1.778240972059814 1.5106833333333334 1.7785743053931473 1.5206833333333334 C 1.7792409720598141 1.5303499999999999 1.7759076387264807 1.5606833333333334 1.7752409720598141 1.5706833333333332 C 1.7739076387264807 1.5976833333333333 1.7729076387264806 1.6246833333333333 1.7719076387264807 1.6520166666666667 C 1.7712409720598141 1.6650166666666666 1.7705743053931473 1.67835 1.7709076387264806 1.6916833333333334 C 1.7712409720598141 1.7006833333333333 1.7752409720598141 1.7026833333333333 1.7835743053931474 1.7026833333333333 C 1.7875743053931474 1.7026833333333333 1.788240972059814 1.69535 1.7879076387264807 1.6856833333333334 C 1.7875743053931474 1.67035 1.7889076387264806 1.6500166666666667 1.7892409720598141 1.64535 C 1.7895743053931474 1.63635 1.7905743053931473 1.6300166666666667 1.7905743053931473 1.6180166666666667 C 1.7959076387264807 1.62935 1.8125743053931473 1.6710166666666666 1.826240972059814 1.6730166666666666 C 1.8269076387264807 1.6730166666666666 1.8275743053931475 1.6730166666666666 1.828240972059814 1.6730166666666666 C 1.831240972059814 1.6730166666666666 1.8345743053931474 1.6716833333333334 1.833240972059814 1.6686833333333333 C 1.8309076387264807 1.66435 1.819240972059814 1.6436833333333334 1.8105743053931473 1.6236833333333334 C 1.8099076387264807 1.6220166666666667 1.8032409720598142 1.6040166666666666 1.8015743053931474 1.60235 C 1.8125743053931473 1.5896833333333333 1.8275743053931475 1.57035 1.8269076387264807 1.5440166666666666 C 1.826240972059814 1.51435 1.8089076387264806 1.50735 1.8019076387264807 1.5016833333333333 C 1.7992409720598141 1.4970166666666667 1.7955743053931474 1.4940166666666665 1.7899076387264807 1.4940166666666665 C 1.7819076387264807 1.49435 1.7785743053931473 1.5016833333333333 1.7735743053931474 1.50735 M 1.7919076387264807 1.5856833333333333 C 1.7932409720598141 1.57135 1.796240972059814 1.5360166666666666 1.7972409720598141 1.5216833333333333 C 1.8032409720598142 1.5226833333333334 1.8105743053931473 1.5316833333333333 1.810240972059814 1.5446833333333334 C 1.8095743053931475 1.5630166666666667 1.7999076387264807 1.5800166666666666 1.7919076387264807 1.5856833333333333 M 1.8874165905493974 1.51935 C 1.889083257216064 1.51935 1.891083257216064 1.51935 1.893083257216064 1.51935 C 1.897083257216064 1.51935 1.901083257216064 1.51935 1.9027499238827308 1.51935 C 1.905749923882731 1.5196833333333333 1.9080832572160642 1.5170166666666667 1.9080832572160642 1.5140166666666666 C 1.907749923882731 1.5100166666666666 1.905749923882731 1.5066833333333334 1.9020832572160642 1.5046833333333334 C 1.8984165905493975 1.5030166666666667 1.8834165905493974 1.5020166666666666 1.869083257216064 1.5020166666666666 C 1.8644165905493975 1.5020166666666666 1.8600832572160642 1.5020166666666666 1.8560832572160642 1.50235 C 1.8557499238827309 1.50235 1.8554165905493976 1.50235 1.8554165905493976 1.50235 C 1.8524165905493974 1.50235 1.8497499238827309 1.5010166666666667 1.8467499238827307 1.5010166666666667 C 1.8467499238827307 1.5010166666666667 1.8464165905493974 1.5010166666666667 1.8460832572160641 1.5010166666666667 C 1.8437499238827308 1.5010166666666667 1.8414165905493975 1.50335 1.8417499238827308 1.5060166666666666 C 1.8417499238827308 1.5076833333333333 1.8414165905493975 1.5100166666666666 1.843083257216064 1.51135 C 1.8437499238827308 1.51635 1.8457499238827308 1.5206833333333334 1.8517499238827309 1.52035 C 1.8577499238827309 1.5200166666666666 1.8540832572160642 1.5196833333333333 1.8604165905493975 1.51935 C 1.8644165905493975 1.51935 1.8664165905493975 1.51935 1.8664165905493975 1.52335 C 1.8660832572160642 1.5400166666666666 1.863083257216064 1.5736833333333333 1.8617499238827309 1.5956833333333333 C 1.8597499238827309 1.6236833333333334 1.8567499238827307 1.6553499999999999 1.8574165905493976 1.6840166666666667 C 1.8577499238827309 1.6916833333333334 1.861083257216064 1.6980166666666667 1.8697499238827309 1.6976833333333332 C 1.8737499238827309 1.6976833333333332 1.8774165905493976 1.69535 1.8774165905493976 1.6910166666666666 C 1.8774165905493976 1.6870166666666666 1.8754165905493974 1.6836833333333334 1.875083257216064 1.6796833333333334 C 1.8744165905493975 1.6530166666666666 1.8807499238827308 1.56235 1.883083257216064 1.53935 C 1.8837499238827309 1.5326833333333334 1.8837499238827309 1.5256833333333333 1.8874165905493974 1.51935 M 2.0227463431535644 1.59635 C 2.020746343153564 1.59135 2.0160796764868976 1.58535 2.009746343153564 1.58535 C 2.0067463431535644 1.58535 2.004413009820231 1.5856833333333333 2.0024130098202306 1.5856833333333333 C 2.0000796764868976 1.5856833333333333 1.9977463431535643 1.5860166666666666 1.9950796764868974 1.5860166666666666 C 1.9910796764868974 1.5860166666666666 1.9817463431535642 1.58535 1.9800796764868975 1.5840166666666666 C 1.9844130098202308 1.5720166666666666 2.012746343153564 1.5406833333333334 2.0254130098202308 1.5406833333333334 C 2.0270796764868977 1.5406833333333334 2.0280796764868976 1.54135 2.0290796764868975 1.54135 C 2.0300796764868974 1.5416833333333333 2.031413009820231 1.5423499999999999 2.0340796764868974 1.5423499999999999 C 2.035413009820231 1.5423499999999999 2.0357463431535643 1.5423499999999999 2.0380796764868974 1.54135 C 2.0380796764868974 1.54035 2.0380796764868974 1.5396833333333333 2.0384130098202307 1.5390166666666667 C 2.0384130098202307 1.5383499999999999 2.038746343153564 1.53735 2.038746343153564 1.5366833333333334 C 2.038746343153564 1.52835 2.025746343153564 1.5266833333333334 2.0197463431535643 1.5266833333333334 C 2.020746343153564 1.5166833333333334 2.021746343153564 1.51135 2.0264130098202306 1.5030166666666667 C 2.027413009820231 1.5020166666666666 2.027413009820231 1.50135 2.027413009820231 1.50035 C 2.027413009820231 1.49535 2.023413009820231 1.49035 2.0180796764868973 1.49035 C 2.008746343153564 1.49035 2.0064130098202306 1.5090166666666667 2.0050796764868974 1.5216833333333333 C 2.004413009820231 1.5260166666666666 2.004413009820231 1.52935 2.0040796764868976 1.53135 C 2.0020796764868973 1.5340166666666666 1.9990796764868974 1.5356833333333333 1.9967463431535641 1.5376833333333333 C 1.9877463431535642 1.5430166666666667 1.962746343153564 1.5700166666666666 1.962746343153564 1.58135 C 1.962746343153564 1.59635 1.9747463431535641 1.5990166666666668 1.9857463431535642 1.6016833333333333 L 1.9860796764868975 1.6016833333333333 C 1.9747463431535641 1.6100166666666667 1.9570796764868974 1.63035 1.9570796764868974 1.6436833333333334 C 1.9570796764868974 1.65235 1.9660796764868975 1.6586833333333333 1.9737463431535642 1.6586833333333333 C 1.9750796764868974 1.6586833333333333 1.9767463431535641 1.6586833333333333 1.9787463431535641 1.65835 C 1.9797463431535642 1.65835 1.9810796764868974 1.6580166666666667 1.9824130098202308 1.6580166666666667 C 1.9824130098202308 1.6586833333333333 1.9824130098202308 1.6590166666666666 1.9820796764868975 1.6610166666666666 C 1.9817463431535642 1.6646833333333333 1.981413009820231 1.66935 1.981413009820231 1.67435 C 1.981413009820231 1.68235 1.9827463431535641 1.6900166666666667 1.987413009820231 1.6900166666666667 C 1.9940796764868975 1.6900166666666667 1.9960796764868975 1.6760166666666667 1.9977463431535643 1.6650166666666666 C 1.9984130098202308 1.6600166666666667 1.9990796764868974 1.6560166666666667 2.0000796764868976 1.6536833333333334 C 2.0000796764868976 1.6490166666666666 1.9980796764868975 1.6450166666666666 1.9964130098202308 1.6416833333333334 C 1.9960796764868975 1.6406833333333333 1.9954130098202307 1.6390166666666666 1.9950796764868974 1.6380166666666667 C 1.9917463431535642 1.6390166666666666 1.9900796764868975 1.6396833333333334 1.9880796764868975 1.6406833333333333 C 1.9847463431535641 1.6420166666666667 1.9810796764868974 1.64335 1.977413009820231 1.64335 C 1.9764130098202308 1.64335 1.9757463431535642 1.64335 1.9747463431535641 1.6430166666666666 C 1.9840796764868975 1.62235 2.003413009820231 1.60835 2.0227463431535644 1.59635 M 2.0880765840389808 1.6820166666666667 C 2.0850765840389807 1.68235 2.082743250705647 1.6860166666666667 2.0810765840389807 1.68935 C 2.082743250705647 1.6970166666666666 2.090409917372314 1.7030166666666666 2.098409917372314 1.7026833333333333 C 2.122743250705647 1.7016833333333332 2.1377432507056473 1.6640166666666667 2.137409917372314 1.64235 C 2.1357432507056475 1.5970166666666668 2.101409917372314 1.5856833333333333 2.1007432507056474 1.5590166666666667 C 2.100076584038981 1.5400166666666666 2.118743250705647 1.5120166666666666 2.139409917372314 1.51135 C 2.1407432507056474 1.5120166666666666 2.1420765840389806 1.51235 2.1430765840389805 1.51235 C 2.146743250705647 1.51235 2.1497432507056473 1.5096833333333333 2.1497432507056473 1.5060166666666666 C 2.149409917372314 1.4986833333333334 2.141409917372314 1.4930166666666667 2.134409917372314 1.4930166666666667 C 2.1117432507056475 1.4936833333333333 2.0837432507056475 1.5330166666666667 2.0840765840389808 1.5546833333333334 C 2.0857432507056473 1.59835 2.1197432507056475 1.6066833333333332 2.1207432507056474 1.64135 C 2.1210765840389807 1.6556833333333334 2.114743250705647 1.68535 2.0967432507056474 1.6860166666666667 C 2.0940765840389806 1.6860166666666667 2.090409917372314 1.6856833333333334 2.0880765840389808 1.6820166666666667 M 2.1775731660702307 1.4986833333333334 C 2.1745731660702305 1.4986833333333334 2.1692398327368974 1.4996833333333333 2.168906499403564 1.5030166666666667 C 2.1682398327368975 1.50535 2.171239832736897 1.5090166666666667 2.171239832736897 1.51135 C 2.171906499403564 1.52535 2.168906499403564 1.5600166666666666 2.1662398327368972 1.5886833333333332 C 2.163239832736897 1.6200166666666667 2.1605731660702308 1.6600166666666667 2.1605731660702308 1.69135 C 2.1605731660702308 1.69935 2.1642398327368975 1.7046833333333333 2.172906499403564 1.7050166666666666 C 2.178906499403564 1.7050166666666666 2.178906499403564 1.7000166666666667 2.178906499403564 1.69535 C 2.179239832736897 1.6906833333333333 2.1775731660702307 1.68635 2.1775731660702307 1.68135 C 2.1782398327368973 1.6666833333333333 2.179239832736897 1.63835 2.180906499403564 1.6236833333333334 C 2.2092398327368974 1.6120166666666667 2.2265731660702306 1.5696833333333333 2.226906499403564 1.5466833333333334 C 2.2275731660702305 1.5136833333333333 2.202906499403564 1.49935 2.1775731660702307 1.4986833333333334 M 2.1902398327368973 1.5150166666666667 C 2.203239832736897 1.5156833333333333 2.210906499403564 1.5286833333333334 2.2105731660702306 1.5466833333333334 C 2.2105731660702306 1.56135 2.2002398327368975 1.5906833333333332 2.181906499403564 1.6046833333333332 C 2.1842398327368975 1.5760166666666666 2.1882398327368975 1.5430166666666667 2.1902398327368973 1.5150166666666667 M 2.2804063366431473 1.5960166666666666 C 2.2827396699764804 1.6190166666666665 2.282406336643147 1.6496833333333334 2.286406336643147 1.6926833333333333 C 2.2867396699764804 1.69835 2.2887396699764806 1.70035 2.294406336643147 1.7006833333333333 C 2.2977396699764805 1.7006833333333333 2.3057396699764805 1.7000166666666667 2.306073003309814 1.6976833333333332 C 2.306073003309814 1.6956833333333334 2.3047396699764806 1.6956833333333334 2.3044063366431473 1.69335 C 2.300073003309814 1.66835 2.2987396699764804 1.61635 2.298073003309814 1.59535 C 2.2977396699764805 1.5920166666666666 2.3004063366431473 1.5910166666666667 2.3007396699764806 1.58735 C 2.301406336643147 1.5836833333333333 2.300073003309814 1.5796833333333333 2.297406336643147 1.5786833333333332 C 2.2964063366431473 1.55735 2.2947396699764804 1.52435 2.293073003309814 1.5030166666666667 C 2.2924063366431473 1.4986833333333334 2.2817396699764805 1.4960166666666668 2.2780730033098138 1.4960166666666668 C 2.271073003309814 1.49635 2.2677396699764807 1.50335 2.266406336643147 1.5086833333333334 C 2.255073003309814 1.5556833333333333 2.2467396699764803 1.60535 2.237073003309814 1.6540166666666667 C 2.235073003309814 1.6656833333333334 2.232073003309814 1.68335 2.2327396699764805 1.6946833333333333 C 2.2327396699764805 1.6980166666666667 2.2404063366431473 1.7020166666666667 2.2434063366431474 1.7020166666666667 C 2.2474063366431474 1.7016833333333332 2.249406336643147 1.6990166666666666 2.2497396699764804 1.69535 C 2.253406336643147 1.6636833333333334 2.261073003309814 1.61835 2.265073003309814 1.5966833333333332 C 2.272073003309814 1.59635 2.2740730033098138 1.5966833333333332 2.2804063366431473 1.5960166666666666 M 2.2797396699764807 1.5376833333333333 C 2.2804063366431473 1.5500166666666666 2.280073003309814 1.5666833333333332 2.2804063366431473 1.5790166666666667 C 2.2794063366431474 1.57935 2.276073003309814 1.5796833333333333 2.273073003309814 1.5796833333333333 C 2.271073003309814 1.5796833333333333 2.269073003309814 1.57935 2.2684063366431473 1.57935 C 2.2700730033098138 1.5646833333333334 2.277073003309814 1.5346833333333334 2.2794063366431474 1.52335" fill="#4e888f" fill-rule="nonzero"></path></g><g clip-path="url(#SvgjsClipPath1002)"><g clip-path="url(#SvgjsClipPath1000ef3aec3b-ce0b-454f-8041-b982a205342a)"><path d=" M 2.4508901848711964 0.6284867410336062 C 2.4769120431033342 0.5637494351878 2.488336273546712 0.5002814882801467 2.488336273546712 0.4263413301327307 C 2.488336273546712 0.11598306975430661 2.237003203792405 -0.13535000000000008 1.9266449434139807 -0.13535000000000008 C 1.6162866830355567 -0.13535000000000008 1.36495361328125 0.11598306975430661 1.36495361328125 0.4263413301327307 C 1.36495361328125 0.5764430245693306 1.4208054065599849 0.7094083733408639 1.5169593461250797 0.8100050691894944 C 1.5220367818776919 0.8150825049421068 1.481734635591332 0.8173038830838745 1.4868120713439443 0.8223813188364868 C 1.495062904441939 0.823968017509178 1.527114217630304 0.8328535300762495 1.5601175500222837 0.8322188506071732 C 1.5709071009965847 0.8319015108726346 1.5816966519708857 0.8328535300762495 1.5921688632106485 0.8315841711380966 C 1.6134306254247124 0.8290454532617904 1.6340577081696996 0.8220639791019485 1.6537327717110721 0.8119091075967241 C 1.7038724497681181 0.7855699096300479 1.7356064232219448 0.7211499435187799 1.752742768887011 0.6491138237785935 C 1.7698791145520774 0.5770777040384072 1.7721004926938453 0.49806011013837903 1.76575369800308 0.44411235526687387 C 1.7635323198613122 0.42538931092911625 1.7568681854360084 0.382231107031912 1.7530601086215496 0.3711242163230727 C 1.7508387304797814 0.3711242163230727 1.7505213907452433 0.3904819401299071 1.745443954992631 0.3911166195989835 C 1.7432225768508633 0.3914339593335219 1.7410011987090954 0.40031947190059325 1.738145141098251 0.4009541513696697 C 1.7337023848147153 0.4019061705732846 1.7289422887966412 0.40317552951143776 1.7232301735749525 0.404762228184129 C 1.717835398087802 0.4066662665913586 1.7086325457861922 0.39714607455521056 1.7019684113608888 0.40000213216605496 C 1.6968909756082764 0.4022235103078229 1.6943522577319703 0.41650379836204476 1.6886401425102815 0.41967719570742745 C 1.6867361041030517 0.4209465546455805 1.684514725961284 0.4218985738491954 1.6822933478195163 0.42316793278734854 C 1.6746771941905978 0.42761068907088406 1.6616662650745289 0.4263413301327311 1.6527807525074574 0.4323707850889581 C 1.643577900205848 0.4387175797797235 1.6385004644532355 0.4520458486303306 1.6280282532134727 0.4606140214628638 C 1.62485485586809 0.4631527393391698 1.6172387022391717 0.45585392544478975 1.6137479651592508 0.45870998305563404 C 1.607083830733947 0.46442209827732295 1.6042277731231027 0.48092376447331264 1.5969289592287226 0.4879052386331544 C 1.5908995042724956 0.4936173538548433 1.5848700493162684 0.49964680881107026 1.578523254625503 0.5059936035018356 C 1.574715177811044 0.5098016803162948 1.5728111394038145 0.5021855266873765 1.5686857228548168 0.506628282970912 C 1.5610695692258985 0.5145617763343686 1.5515493771897506 0.5348715193448177 1.5436158838262939 0.5440743716464275 C 1.5407598262154494 0.54724776899181 1.5372690891355285 0.5377275769556622 1.5344130315246842 0.5409009743010449 C 1.5287009163029952 0.5475651087263486 1.5239408202849214 0.567240172267721 1.5179113653286944 0.5745389861621011 L 1.5118819103724672 0.5764430245693308 L 1.5083911732925464 0.5713655888167185 C 1.5052177759471637 0.4625180598700932 1.5394904672772964 0.3980980937588252 1.5810619725018094 0.3603346653487715 C 1.6194600803809396 0.3254272945495623 1.6635703034817584 0.3140030641061848 1.6899095014484347 0.31019498729172557 C 1.6851494054303606 0.30860828861903417 1.6803893094122866 0.3067042502118045 1.6756292133942126 0.30511755153911324 C 1.6692824187034474 0.3032135131318836 1.671186457110677 0.2927413018921209 1.6645223226853734 0.2911546032194295 C 1.659444886932761 0.28988524428127654 1.6461166180821538 0.29718405817565663 1.6410391823295416 0.2959146992375035 C 1.631836330027932 0.29401066083027383 1.6267588942753197 0.2832211098559728 1.61755604197371 0.2819517509178199 C 1.61025722807933 0.28131707144874335 1.5991503373704907 0.2905199237503531 1.5918515234761104 0.29020258401581484 C 1.5870914274580363 0.29020258401581484 1.5861394082544216 0.2803650522451285 1.5813793122363475 0.2803650522451285 C 1.5715417804656613 0.280682391979667 1.5572614924114394 0.2911546032194295 1.547106620906215 0.2924239621575828 L 1.5417118454190644 0.28925056481219996 L 1.5429812043572173 0.28290377012143475 C 1.575984536749197 0.2524391556057611 1.6127959459556358 0.23911088675515407 1.6464339578166922 0.23498547020615657 C 1.67975462994321 0.23086005365715895 1.710536584193422 0.23593748940977144 1.733385045080177 0.24228428410053665 C 1.7448092755235547 0.24545768144591928 1.7540121278251644 0.24863107879130192 1.760993601985006 0.25148713640214626 L 1.769244435083001 0.2552952132166054 L 1.7695617748175394 0.2552952132166054 C 1.795266293315139 0.22927335498446771 1.8377898177432666 0.207059573566789 1.8838040792513153 0.20134745834510032 C 1.9034791427926878 0.19880874046879404 1.9241062255376749 0.19976075967240892 1.9440986288135857 0.20483819542502124 L 1.947906705628045 0.2086462722394804 L 1.9463200069553535 0.2140410477266308 C 1.9425119301408942 0.2172144450720136 1.930135680493902 0.21150232985032474 1.9234715460685985 0.2140410477266308 C 1.9177594308469095 0.2159450861338605 1.9187114500505245 0.22514793843547026 1.9107779566870677 0.2283213357808529 C 1.9053831811999171 0.23054271392262066 1.8930069315529248 0.22483059870093175 1.8866601368621594 0.2280039960463146 C 1.8841214189858533 0.2292733549844675 1.8876121560657744 0.23942822648969214 1.885073438189468 0.24101492516238354 C 1.8825347203131617 0.24260162383507478 1.8799960024368558 0.24418832250776618 1.8774572845605497 0.24577502118045758 C 1.8739665474806289 0.24799639932222534 1.8606382786300215 0.24799639932222534 1.8568302018155625 0.2505351171985314 C 1.8542914839392564 0.2524391556057611 1.861907637568175 0.25656457215475836 1.8593689196918688 0.25846861056198805 C 1.8542914839392564 0.26259402711098573 1.8488967084521057 0.26735412312905954 1.8431845932304172 0.27243155888167186 C 1.925375584475828 0.264498065518215 2.017404107491925 0.28131707144874313 2.1122886881188667 0.4069836063258965 L 2.1122886881188667 0.41364774075120003 L 2.1056245536935627 0.4145997599548149 C 2.1005471179409505 0.4117437023439705 2.086901509355805 0.3961940553515956 2.081824073603193 0.3933379977407512 C 2.076429298116042 0.3904819401299069 2.0792853557268867 0.4012714911042079 2.0738905802397363 0.39873277322790157 C 2.068813144487124 0.39651139508613387 2.063735708734512 0.39429001694436605 2.0583409332473614 0.3923859785371364 C 2.052946157760211 0.3901646003953686 2.0440606451931393 0.377788350748376 2.038665869705989 0.3758843123411465 C 2.0326364147497618 0.3736629341993788 2.030097696873456 0.382231107031912 2.024385581651767 0.38032706862468224 C 2.0101052935975448 0.3758843123411465 1.995825005543323 0.37239357526122563 1.982496736692716 0.36953751765038123 C 1.9758326022674124 0.3679508189776899 1.9704378267802616 0.3571612680033889 1.9640910320894964 0.35589190906523577 C 1.9460026672208155 0.35271851171985313 1.9288663215557489 0.3606520050833098 1.91585539243968 0.35969998587969493 C 1.9060178606689937 0.3590653064106184 1.898084367305537 0.3587479666760801 1.8920549123493102 0.3587479666760801 C 1.9199808089886776 0.37620165207568457 2.0062972167830857 0.41682113809658283 2.0180387869610015 0.512657737927139 C 2.019942825368231 0.5285247246540524 2.0148653896156192 0.5780297232420221 2.0145480498810806 0.5780297232420221 C 2.00915327439393 0.6046862609432363 1.9986810631541674 0.6341988562552949 1.9812273777545628 0.6672021886472748 L 1.9758326022674124 0.6700582462581192 L 1.9713898459838766 0.6656154899745834 C 1.9701204870457236 0.6592686952838182 1.968533788373032 0.6532392403275912 1.9672644294348791 0.6472097853713639 C 1.9650430512931112 0.6380069330697543 1.962504333416805 0.6294387602372211 1.9596482758059608 0.6208705874046879 C 1.9567922181951163 0.6119850748376163 1.9615523142131903 0.5954834086416265 1.9580615771332694 0.5869152358090933 C 1.95615753872604 0.5815204603219429 1.9460026672208155 0.5840591781982492 1.9437812890790473 0.5789817424456367 C 1.940925231468203 0.5729522874894097 1.938386513591897 0.5666054927986445 1.9352131162465143 0.5608933775769556 C 1.9333090778392847 0.5570853007624964 1.938386513591897 0.5437570319118894 1.9364824751846674 0.5402662948319683 C 1.933943757308361 0.5355061988138943 1.9247409050067517 0.5405836345665068 1.9222021871304453 0.5361408782829709 C 1.9190287897850626 0.5307461027958205 1.91585539243968 0.5253513273086698 1.9126819950942973 0.5199565518215192 C 1.9079218990762234 0.5123403981926009 1.912047315625221 0.49488671279299623 1.9072872196071469 0.4882225783676927 C 1.9028444633236112 0.4818757836769272 1.8898335342075423 0.48631853996046304 1.8850734381894683 0.48060642473877435 C 1.8803133421713942 0.4742596300480091 1.8755532461533204 0.4682301750917819 1.8707931501352464 0.4628353996046314 L 1.8755532461533204 0.44728575261225634 C 1.867937092524402 0.43840024004518485 1.851435426328412 0.44125629765602936 1.8444539521685703 0.4342748234961874 C 1.8349337601324223 0.42475463146003956 1.840963215088649 0.4152344394238915 1.833347061459731 0.4092049844676645 C 1.8279522859725805 0.4044448884495905 1.8044691456167485 0.38350046597006493 1.8006610688022895 0.38064440835922053 C 1.8031997866785956 0.39682873482067216 1.810815940307514 0.43268812482349617 1.8127199787147437 0.4479204320813329 C 1.8352510998669607 0.6345161959898333 1.7984396906605216 0.7420943659983054 1.7521080894179348 0.8042929539678055 C 1.706093827909886 0.8664915419373058 1.6505593743656897 0.8823585286642188 1.6385004644532355 0.8861666054786783 C 1.6302496313552404 0.8890226630895226 1.6223161379917839 0.8909267014967523 1.614065304893789 0.8925134001694435 C 1.70355511003358 0.9528079497317141 1.8111332800420523 0.9883500000000001 1.9272796228830575 0.9883500000000001 C 1.9961423452778613 0.9883500000000001 2.060562311389129 0.9769257695566225 2.119904841747785 0.9553466676080205 C 2.0843627914794993 0.9134578226489694 2.0665917663453564 0.8753770545043773 2.060562311389129 0.8411043631742446 C 2.0446953246622157 0.753201256707145 2.1040378550208714 0.6941760660830276 2.1221262198895525 0.671010265461734 C 2.117366123871479 0.6725969641344254 2.110701989446175 0.6748183422761932 2.103085835817257 0.677991739621576 C 2.092613624577494 0.6824344959051115 2.076746637850581 0.6802131177633438 2.063101029265435 0.6878292713922621 C 2.058340933247361 0.6903679892685683 2.05675423457467 0.7017922197119459 2.051676798822058 0.7046482773227902 C 2.041521927316833 0.7106777322790174 2.0310497160770704 0.7179765461733975 2.0205775048373074 0.7255926998023161 C 2.016134748553772 0.7287660971476987 2.0120093320047743 0.7217846229878568 2.0078839154557766 0.7252753600677776 C 2.0040758386413176 0.7284487574131602 1.99995042209232 0.7417770262637674 1.9961423452778608 0.7449504236091501 C 1.9923342684634018 0.7481238209545327 1.988843531383481 0.7512972182999155 1.98535279430356 0.7547879553798363 C 1.981544717489101 0.7585960321942956 1.9812273777545624 0.7484411606890712 1.9774193009401033 0.7522492375035303 C 1.9739285638601825 0.7557399745834512 1.9669470897003407 0.7735109997175941 1.963773692354958 0.7773190765320532 L 1.958061577133269 0.778271095735668 L 1.9561575387260395 0.7722416407794411 C 2.0002677618268585 0.6357855549279867 2.0700825034252768 0.5961180881107034 2.1386278860855423 0.5812031205874051 C 2.1329157708638533 0.5780297232420222 2.1272036556421647 0.5754910053657162 2.1218088801550143 0.5732696272239484 C 2.119270162278708 0.5720002682857953 2.124030258296782 0.5666054927986447 2.1218088801550143 0.56565347359503 C 2.1183181430750935 0.5640667749223386 2.1075285921007922 0.5678748517367979 2.1040378550208714 0.566922832533183 C 2.101499137144565 0.5662881530641064 2.098960419268259 0.5653361338604915 2.096421701391953 0.5647014543914152 C 2.0935656437811088 0.5640667749223386 2.094200323250185 0.5539119034171142 2.091661605373879 0.5535945636825759 C 2.085632150417652 0.5523252047444228 2.0770639775851185 0.560893377576956 2.072303881567045 0.5602586981078794 C 2.0650050676726646 0.5593066789042646 2.063101029265435 0.5510558458062699 2.058340933247361 0.5507385060717316 C 2.0523114782911343 0.5504211663371931 2.0437433054586007 0.5589893391697265 2.0399352286441417 0.5570853007624968 L 2.037079171033297 0.5529598842134994 L 2.0393005491750653 0.5485171279299637 C 2.0542155166983633 0.5386795961592775 2.070717182894353 0.5326501412030503 2.0872188490903434 0.5294767438576677 C 2.12625163643855 0.5221779299632876 2.166236442990371 0.5304287630612825 2.194162339629739 0.5462957497881958 L 2.194479679364277 0.5459784100536575 L 2.200191794585966 0.5405836345665069 C 2.20495189060404 0.5361408782829714 2.2116160250293437 0.5307461027958207 2.220184197861877 0.5250339875741321 C 2.237003203792405 0.5132924173962163 2.260486344148237 0.5005988280146857 2.2887295805221424 0.4952040525275351 C 2.317290156630586 0.4898092770403847 2.350293489022566 0.4917133154476142 2.385200859821775 0.5098016803162955 L 2.387739577698081 0.5148791160689078 L 2.383931500883622 0.5190045326179052 C 2.3753633280510886 0.5205912312905966 2.3610830399968665 0.5151964558034462 2.3531495466334102 0.5177351736797523 C 2.3490241300844126 0.5190045326179052 2.3512455082261803 0.5278900451849767 2.347120091677183 0.52915940412313 C 2.3414079764554945 0.5313807822648978 2.3296664062775783 0.5263033465122857 2.3239542910558897 0.5288420643885915 C 2.3166554771615093 0.5320154617339744 2.3153861182233566 0.5431223524428136 2.308721983798053 0.547247768991811 C 2.3049139069835936 0.5494691471335789 2.2922203176020632 0.5466130895227346 2.2884122407876037 0.5491518073990408 C 2.2836521447695297 0.5523252047444234 2.2877775613185274 0.5608933775769566 2.2830174653004534 0.5643841146568775 C 2.2795267282205325 0.5669228325331838 2.27635333087515 0.569778890144028 2.272862593795229 0.5726349477548724 C 2.2950763752129077 0.5691442106749516 2.333791822826576 0.567240172267722 2.374093969112936 0.5878672550127093 C 2.3944037121233848 0.5980221265179337 2.4147134551338336 0.6145237927139237 2.4337538392061298 0.6383242728042936 C 2.447399447791275 0.6554606184693598 2.458506338500114 0.6795784382942682 2.461362396110959 0.6837038548432657 C 2.465805152394495 0.6646634707709683 2.448986146463967 0.6335641767862183 2.4508901848711964 0.6284867410336062 Z" fill="#4e888f" transform="matrix(1,0,0,1,0,0)" fill-rule="nonzero"></path></g><g clip-path="url(#SvgjsClipPath1000ef3aec3b-ce0b-454f-8041-b982a205342a)"><path d=" M 2.198605095913275 0.66434613103643 C 2.196383717771507 0.667836868116351 2.185276827062668 0.694176066083027 2.182103429717285 0.6998881813047159 C 2.1779780131682873 0.7075043349336342 2.1849594873281295 0.7141684693589377 2.1798820515755173 0.7252753600677772 C 2.1760739747610582 0.7335261931657721 2.1621110264413743 0.7354302315730016 2.1583029496269153 0.7452677633436879 C 2.157668270157839 0.7471718017509176 2.1668711224594484 0.7557399745834507 2.166236442990372 0.7576440129906802 C 2.164015064848604 0.7639908076814456 2.1614763469722975 0.7703376023722108 2.15925496883053 0.7773190765320526 C 2.157033590688762 0.7836658712228181 2.1452920205108463 0.7833485314882795 2.143387982103617 0.7900126659135833 C 2.141483943696387 0.7973114798079634 2.1494174370598436 0.8115917678621855 2.147513398652614 0.8195252612256421 C 2.1462440397144613 0.8249200367127925 2.144974680776308 0.8306321519344814 2.144022661572693 0.8363442671561702 C 2.1430706423690786 0.8411043631742442 2.134185129802007 0.8388829850324763 2.1335504503329306 0.8436430810505503 C 2.132915770863854 0.8474511578650095 2.1405319244927723 0.8579233691047724 2.139897245023696 0.8617314459192316 C 2.138945225820081 0.8677609008754585 2.138310546351004 0.8737903558316857 2.137993206616466 0.8801371505224509 C 2.137675866881928 0.8852145862750631 2.128790354314856 0.8858492657441395 2.128473014580318 0.8909267014967519 C 2.1281556748457797 0.8994948743292852 2.1360891682092364 0.9125058034453539 2.1360891682092364 0.9213913160124256 C 2.1360891682092364 0.9296421491104205 2.1364065079437746 0.9382103219429534 2.1370411874128514 0.9467784947754869 C 2.1370411874128514 0.9474131742445635 2.1370411874128514 0.9480478537136399 2.1373585271473896 0.9486825331827164 C 2.178612692637364 0.9318635272521885 2.217645479985571 0.9102844253035862 2.2538222097229332 0.883627887602372 C 2.2360511845887903 0.8404696837051677 2.2198668581273386 0.7884259672408921 2.209394646887576 0.7287660971476981 C 2.2062212495421933 0.714168469358938 2.2008264740550425 0.6792610985597287 2.198605095913275 0.66434613103643 Z" fill="#4e888f" transform="matrix(1,0,0,1,0,0)" fill-rule="nonzero"></path></g><g clip-path="url(#SvgjsClipPath1000ef3aec3b-ce0b-454f-8041-b982a205342a)"><path d=" M 2.3728246101747827 0.6843385343123408 C 2.369333873094862 0.6827518356396496 2.3652084565458646 0.6913200084721827 2.3617177194659433 0.6897333097994914 C 2.3512455082261807 0.6849732137814174 2.343312014862724 0.6745010025416545 2.3344265022956527 0.6713276051962719 C 2.325540989728581 0.6684715475854276 2.3153861182233566 0.6729143038689633 2.3080873043289767 0.6710102654617336 C 2.3061832659217467 0.670375585992657 2.303961887779979 0.6700582462581187 2.3020578493727495 0.6694235667890421 C 2.2963457341510605 0.6684715475854274 2.29095095866391 0.6564126376729732 2.285873522911298 0.6557779582038966 C 2.2798440679550707 0.6548259390002819 2.2747666322024584 0.6659328297091213 2.2700065361843844 0.665615489974583 C 2.264929100431772 0.665615489974583 2.260486344148237 0.665615489974583 2.2569956070683155 0.6662501694436596 C 2.2544568891920096 0.6665675091781978 2.250331472643012 0.6592686952838178 2.2484274342357824 0.6595860350183559 C 2.2443020176867847 0.6605380542219706 2.239224581934173 0.6548259390002819 2.2376378832614816 0.6557779582038966 C 2.237320543526943 0.6668848489127361 2.242715319014094 0.6951280852866416 2.2458887163594765 0.7119470912171697 C 2.252235511050242 0.7465371222818407 2.265246440166311 0.7906473453826598 2.28365214476953 0.8344402287489405 C 2.285873522911298 0.8398350042360909 2.301105830169135 0.8763290737079916 2.303327208310902 0.8817238491951422 C 2.307769964594438 0.8798198107879127 2.304279227514517 0.8420563823778591 2.3093566632671294 0.8379309658288614 C 2.3512455082261807 0.8068316718441114 2.40804932070853 0.7195632448460884 2.4093186796466837 0.7144858090934763 C 2.4093186796466837 0.7144858090934763 2.4093186796466837 0.7141684693589377 2.409636019381222 0.7141684693589377 C 2.404241243894071 0.7113124117480933 2.3991638081414592 0.7081390144027108 2.394403712123385 0.7056002965264047 C 2.3861528790253903 0.7014748799774072 2.379806084334625 0.6875119316577234 2.3728246101747827 0.6843385343123408 Z" fill="#4e888f" transform="matrix(1,0,0,1,0,0)" fill-rule="nonzero"></path></g></g></g><defs><clipPath id="SvgjsClipPath1002"><path d=" M 1.36495361328125 -0.13535000000000008 h 1.1233826602654615 v 1.1237000000000001 h -1.1233826602654615 Z"></path></clipPath><clipPath id="SvgjsClipPath1000ef3aec3b-ce0b-454f-8041-b982a205342a"><path d=" M 1.36495361328125 -0.13535000000000008 L 2.488336273546712 -0.13535000000000008 L 2.488336273546712 0.9883500000000001 L 1.36495361328125 0.9883500000000001 Z"></path></clipPath></defs></svg>