<svg xmlns="http://www.w3.org/2000/svg" version="1.1" xmlns:xlink="http://www.w3.org/1999/xlink" xmlns:svgjs="http://svgjs.dev/svgjs" viewBox="0 0 4.481170300433339 3.5906687041388015"><g transform="matrix(1,0,0,1,2.23174987613384,3.444305343760659)"><g transform="matrix(1,0,0,1,0,0)"><path d=" M -1.131440103668103 -1.9844316614145678 C -1.2152890214337617 -2.073618874564928 -1.319497576860338 -2.1755530541903423 -1.4132561849760368 -2.255423720922296 C -1.4143782510727267 -2.2595152936852636 -1.4408318021990265 -2.28378893438476 -1.4451765012487412 -2.286263523273325 L -1.448652260488513 -2.288243194384177 L -1.447156172359593 -2.282787764033553 C -1.4552297569358266 -2.2908386790182242 -1.4605756263367482 -2.2996376380673555 -1.4696390464684077 -2.305950673432141 L -1.4736097234858923 -2.3070614047330498 C -1.4757216251380083 -2.3094150978761316 -1.478328444567837 -2.31089985120927 -1.4791973843777801 -2.3113947689869834 L -1.4824200173308049 -2.3097777851125803 C -1.4872596341582325 -2.3113834341912023 -1.4929795255913842 -2.321546250827989 -1.497324224641099 -2.324020839716554 L -1.5014157974040665 -2.322898773619864 L -1.5012835668628026 -2.3170693212370104 C -1.5033954685149185 -2.3194230143800922 -1.5060022879447472 -2.320907767713231 -1.5091040251522891 -2.321523581236427 C -1.5058700574034831 -2.3150783153303776 -1.5025151939091943 -2.310865846821927 -1.4992812261603885 -2.3044205809158775 L -1.5023829633679302 -2.3050363944390733 L -1.507475706482105 -2.3102386985029497 L -1.5079706242598179 -2.309369758693007 C -1.4738703975603107 -2.2278027645161815 -1.0926211558866512 -1.899026220761522 -1.1026064027990494 -1.8552278778237072 C -1.1249343767750377 -1.8564368352785365 -1.164773377491149 -1.8733736006704784 -1.182900217754468 -1.885999671400049 C -1.228833131935961 -1.9144631110164338 -1.297611607462718 -1.95939106783861 -1.3410699327556463 -1.9921992065047096 C -1.3897418969082325 -2.027976851837087 -1.4386669873475657 -2.0673511521547185 -1.4898135403887165 -2.098784098437381 C -1.5266830344385502 -2.1209345026889808 -1.5824274128161628 -2.1584386928454626 -1.6071733017018102 -2.1149917023483153 C -1.6101428083680878 -2.1097780634886574 -1.6105054956045364 -2.1030796712958613 -1.6121111446831582 -2.0982400544684334 C -1.6159495911593789 -2.093521333386489 -1.6133201021379877 -2.0759120804924454 -1.6118240140090676 -2.0704566501418213 C -1.5773686478607827 -1.9127327529556704 -1.270440203422643 -1.6009685311553108 -1.2825146823955949 -1.5433993817996727 C -1.289938449061289 -1.5303652846505287 -1.3483992078184321 -1.5590591809620982 -1.3592005075699776 -1.5663620518823094 C -1.367020965859464 -1.5708163118817258 -1.3794392494854124 -1.581341815754962 -1.386269872219473 -1.5875339553742642 C -1.3888766916493018 -1.589018708707403 -1.3950801660643855 -1.5902503357537947 -1.3965762541933053 -1.5957057661044183 L -1.3984350295586743 -1.5944628042622453 C -1.4556641612694257 -1.6293601749888984 -1.6239551407323765 -1.7885083645211726 -1.6761255337162968 -1.8423901805253065 C -1.7058130525914021 -1.8731090871308524 -1.750657905063549 -1.9216677033256269 -1.7866584593034396 -1.9433231897995134 C -1.794478917592926 -1.94777744979893 -1.8010564140402396 -1.9503729344329774 -1.808128828265266 -1.952099479257082 C -1.8217674041418253 -1.9483592589347822 -1.8264861252237699 -1.952197705411003 -1.8311935115099334 -1.947973902106771 C -1.8335472046530152 -1.9458620004546552 -1.835031957986154 -1.9432551810248264 -1.8370116290970058 -1.9397794217850546 C -1.8399811357632834 -1.9345657829253968 -1.8420817026196181 -1.9288572262880261 -1.8428184118882969 -1.9235226916828856 C -1.8442804956298735 -1.904791372692152 -1.826924369022577 -1.9110175166987977 -1.7880411994745478 -1.8681561223456131 C -1.7828275606148902 -1.8651866156793353 -1.58209867750996 -1.6599430640450703 -1.5489353993950825 -1.6272444863286726 L -1.5471975197751968 -1.6262546507732467 C -1.5346583404037655 -1.6179619442976096 -1.52198693049107 -1.6038397854391189 -1.5104375866750648 -1.5938091993435959 C -1.4813772161189365 -1.5680508053109605 -1.4451235355922987 -1.5427986638518192 -1.4125987405921796 -1.5231228484887844 C -1.3492870302118276 -1.4847610533181408 -1.2745695413525153 -1.45026037421528 -1.2359659546909059 -1.5180376793908297 C -1.2300269413583504 -1.5284649571101452 -1.2302914024408786 -1.5401238618758522 -1.232293743143293 -1.5527726021969852 C -1.2308429941974977 -1.5795661709681712 -1.252985850661426 -1.6255519721204603 -1.275359163820539 -1.6590099286970992 C -1.2917707940555343 -1.6867706634321489 -1.3183679105188792 -1.7249360062949513 -1.341598828692154 -1.750826630868851 C -1.384705801544415 -1.7983954115081993 -1.5678821057342076 -2.0465797010661175 -1.5635827458676175 -2.076354111299362 C -1.5635827458676175 -2.076354111299362 -1.5609759264377887 -2.0748693579662234 -1.5601069866278459 -2.0743744401885102 C -1.456944940735601 -2.0110136298454724 -1.3678937189060658 -1.926919159809287 -1.2651056950460513 -1.8649222070539049 C -1.2187987588323281 -1.8350949098498641 -1.1176163840509354 -1.7682583402670544 -1.0729075491281628 -1.8164467214377087 C -1.0653515519212045 -1.8236513662039995 -1.0621289189681797 -1.8252683500784024 -1.060644165635041 -1.8278751695082311 C -1.059654330079615 -1.829613049128117 -1.0604023741440751 -1.8323407643034288 -1.0595447691299134 -1.8399080963061683 C -1.0489663782858816 -1.9029326760124299 -1.112179862512313 -1.959651768141577 -1.131440103668103 -1.9844316614145678 M -0.920829480128221 -2.3455546911564675 C -0.925020022832104 -2.333746247065609 -0.9167212310462162 -2.2915072833603465 -0.9146739541607969 -2.2772311264070755 C -0.9081756801495753 -2.228009460091569 -0.9032357704909495 -2.086102457824011 -0.9382452724752147 -2.054744288699942 C -0.9799587216479563 -2.0173813637861575 -1.036588010484501 -2.1465522724531914 -1.0435844084059114 -2.1738478841174365 C -1.0390374223470649 -2.1792631327526015 -0.9590241873735083 -2.256301319576192 -1.0197389403584083 -2.3240856744818967 C -1.0350844273765698 -2.3412179839635585 -1.047203623200211 -2.3397602142326894 -1.0661044541455242 -2.3308856106034175 C -1.0725753375344136 -2.329117089139766 -1.0965349737599281 -2.3183962761136465 -1.1017491549065208 -2.313725910499423 C -1.1047286869902881 -2.3110571301484386 -1.1144121662625317 -2.302383594007739 -1.1138226591079812 -2.300226632878109 L -1.1133108398866263 -2.2966575936397913 C -1.1253569534657544 -2.232168128239319 -1.0895980845267463 -2.109810851004972 -1.0465411555560291 -2.055745142209002 C -1.0067425140908468 -2.0068159266264294 -0.9635119082538894 -1.9945230539365482 -0.909834639123898 -2.0305195923638255 C -0.9083448730820143 -2.031853982539318 -0.9061879119523846 -2.0324434896938683 -0.9039532628895591 -2.034445074957107 C -0.8614949306958758 -2.072475194958638 -0.860475776186967 -2.2197197579281647 -0.8858885764546679 -2.2855619145039783 C -0.8895809952483622 -2.295679525064381 -0.8894713110041518 -2.3105451891722026 -0.89739996412391 -2.320895863532192 L -0.9016361984499739 -2.3211289273317792 C -0.9016361984499739 -2.3211289273317792 -0.9037931595796036 -2.3205394201772287 -0.9044603546673498 -2.3212843031981705 C -0.9077963301060805 -2.3250087183028794 -0.9087422806155946 -2.333558874888203 -0.9127454511420715 -2.338028173013854 L -0.9176488805558816 -2.339006119834383 C -0.9174935046894902 -2.3418302760517586 -0.9194950899527287 -2.344064925114584 -0.920829480128221 -2.3455546911564675 M -1.0644776132370979 -2.2960954771075732 C -1.0348239729546507 -2.294464030510464 -1.030916791361218 -2.2496339743874127 -1.056197122451059 -2.214907833513598 C -1.0612696230424263 -2.23855671800633 -1.0671007019659018 -2.2870335013008947 -1.0644776132370979 -2.2960954771075732 M -0.7189682408858555 -2.4938693601074418 L -0.7216545267710966 -2.498086452487596 C -0.7250973664808226 -2.4792942505215376 -0.7241670833532456 -2.4573594705294215 -0.7248485717568135 -2.4379549459653975 C -0.7255992259659839 -2.401907248143508 -0.7299251518807708 -2.300742598364152 -0.7508942510534234 -2.1996471143903986 L -0.7542679249575468 -2.1974980856822057 C -0.7666189404143413 -2.203858307155238 -0.7738343795940337 -2.217046841472749 -0.7818932372497569 -2.2296981186132117 C -0.8157404394037944 -2.2828334826031544 -0.8312635309632189 -2.350012598617268 -0.8450997855705819 -2.4182662289854777 C -0.8578851242851062 -2.536986636304333 -0.9011144931729723 -2.64579941894294 -0.9255103627875786 -2.6599005375420846 C -0.944152433911803 -2.6705529168161886 -0.9531989412700768 -2.662418993739548 -0.9660062488676879 -2.660188999995124 L -0.9671558286427013 -2.6582710671649963 C -0.9633081637518178 -2.629895100663616 -0.9527072514373731 -2.5927787881029447 -0.9451797513433837 -2.5679325259628363 C -0.9147576900531287 -2.4568897495798048 -0.89099021230426 -2.306038475135546 -0.8259820938814261 -2.2039848395358144 C -0.8082526070388351 -2.1761520298267967 -0.789142444543165 -2.1480130588187962 -0.7460471372293606 -2.1659795411547673 C -0.742136206148189 -2.1672851513869293 -0.7396059507200965 -2.168896922918074 -0.7362322768159731 -2.171045951626267 C -0.6991218638706161 -2.1946852674163884 -0.7003760071431191 -2.2543545821824558 -0.6964827749078909 -2.294775402841648 C -0.6948018375711438 -2.308888320671421 -0.6924335122155142 -2.3293673595895417 -0.6938200874839078 -2.3427119243642007 C -0.6923643464099116 -2.3460105328474072 -0.6928265381660429 -2.350458721105627 -0.6927514727451258 -2.3540634908878157 L -0.6937509216783052 -2.3593550976220663 L -0.6909145049512301 -2.36234754480629 L -0.6933696949584055 -2.3643405430573345 L -0.692220115183392 -2.3662584758874616 C -0.6923761456405406 -2.3720873397987607 -0.6936125900671001 -2.392641444137798 -0.6921568489931039 -2.395940052621004 C -0.6939997164023142 -2.4006944021782064 -0.6917005568522873 -2.404530267838461 -0.6927000057854666 -2.4098218745727116 L -0.6959986142686729 -2.411277615646708 C -0.6967669673237868 -2.4143451282518487 -0.6958484834268389 -2.4184871552110856 -0.6963106751829701 -2.4229353434693053 C -0.6970731286227694 -2.4129644525987697 -0.6969921635865379 -2.4035308189052818 -0.6977546170263372 -2.3935599280347457 C -0.7005969333687269 -2.4036058843261987 -0.7002334054947706 -2.4477065401884968 -0.7034569485570599 -2.452767051044682 L -0.7050687200882045 -2.4552973064727746 C -0.7054499468081041 -2.4503118610375063 -0.703607079398894 -2.4455575114803043 -0.70506282047289 -2.442258902997098 C -0.7069056878821003 -2.4470132525543002 -0.7059872039851525 -2.451155279513537 -0.706143234442301 -2.4569841434248363 L -0.7071426833754804 -2.462275750159087 C -0.7071426833754804 -2.462275750159087 -0.7076799405525286 -2.4631191686351177 -0.7076799405525286 -2.4631191686351177 L -0.7096729388035729 -2.460663978627942 L -0.7132026431648448 -2.4643438138310483 C -0.7128964818658622 -2.4657244894841273 -0.7137457999572074 -2.478225635782756 -0.7148203143113039 -2.479912472734817 C -0.7158948286654003 -2.481599309686879 -0.7166631817205141 -2.48466682229202 -0.7160508591225488 -2.487428173598178 C -0.7168192121776626 -2.4904956862033187 -0.7173564693547109 -2.4913391046793496 -0.7189682408858555 -2.4938693601074418 M -0.610472512429815 -2.5918700711205034 C -0.6200526142089834 -2.5888333541595774 -0.6406674645742488 -2.588666188320626 -0.6571997162074531 -2.5815468726276385 C -0.6617920083277876 -2.5795692849351424 -0.6628378900989229 -2.57694133301001 -0.6662436296037595 -2.5722083700453124 C -0.7035528458153055 -2.5071466886523446 -0.7044265101216143 -2.4055138361356514 -0.6769951291208004 -2.336756877677702 C -0.6645934145829596 -2.3029013393342948 -0.6240885114429555 -2.2669937799405 -0.5835356699396491 -2.279013224437136 C -0.5256727892234342 -2.3039308293625913 -0.4979436747910565 -2.3659557937946336 -0.4851779893351802 -2.424803370421387 C -0.4796937337853675 -2.4424079988203156 -0.4724999847344893 -2.458571227909609 -0.47213096219057865 -2.4728842926534744 C -0.4696436811098089 -2.4772217380796726 -0.46560082486963067 -2.4931168729775353 -0.46534597817549406 -2.4975817417508015 L -0.4679606826033321 -2.49101186193797 C -0.46731031837069614 -2.4945582722871698 -0.4675784125621272 -2.4977091650978696 -0.4668006249824229 -2.5034880098337022 C -0.46562731986421935 -2.5083483961454673 -0.4648495322845151 -2.5141272408813 -0.4649902031288778 -2.519510568078633 L -0.4668403674743059 -2.526335294585601 C -0.4660625798946017 -2.532114139321433 -0.46042440600313195 -2.536719678939062 -0.4626700878870594 -2.5444628638700966 C -0.46661201577475797 -2.546031686526799 -0.47837661357725714 -2.591049396803372 -0.48205044727352475 -2.5894673266493746 L -0.4854429392810671 -2.577118602100711 C -0.4957610861480566 -2.5454557556520543 -0.5355872226805052 -2.3421238131321966 -0.585183977580118 -2.3207658660532346 C -0.5888578112763856 -2.3191837958992374 -0.5929271625111525 -2.3185201841693073 -0.5964735728603517 -2.319170548401943 C -0.6395534379363109 -2.325660943231008 -0.6590050864351231 -2.4871342641564125 -0.6241963988016412 -2.555474261707149 L -0.6205225651053736 -2.5570563318611463 C -0.6161851196791757 -2.5545690507803767 -0.6023552533289948 -2.530038767522001 -0.5877475993991096 -2.511287328999458 C -0.5843286123969786 -2.508404530380189 -0.58038668450928 -2.506835707723486 -0.5757943923889455 -2.5088132954159827 C -0.5730390171167448 -2.5099998480314807 -0.5706791593830434 -2.5121048590710453 -0.5668779023397075 -2.5159193636116757 L -0.565436503030073 -2.517628857112741 C -0.5613803992926004 -2.5259082304266376 -0.555487378706994 -2.534978638817533 -0.5566739313224919 -2.5377340140897333 C -0.5590470365534876 -2.5432447646341347 -0.5770736774855039 -2.564879001775947 -0.5843204165255594 -2.579178819022518 C -0.5903806029501171 -2.5907232609968887 -0.5937995899522481 -2.5936060596161576 -0.610472512429815 -2.5918700711205034 M -0.3818214309831942 -2.65127009342954 C -0.3784641889758776 -2.6624383039444033 -0.3736035301462144 -2.6595445182333295 -0.3734141949732003 -2.6750675383065063 C -0.3848565266112922 -2.6876402487018 -0.3933485485715005 -2.6885812922859875 -0.407888132085383 -2.6848934051886326 C -0.41079604878815956 -2.6841558277691617 -0.4127346599233439 -2.6836641094895146 -0.41564257662612036 -2.6829265320700437 L -0.4270283842974028 -2.6790069168245676 L -0.4306456164362455 -2.672931093287489 C -0.4324853106295131 -2.6435778051364953 -0.4870094151245623 -2.488409760652417 -0.46075901113024254 -2.4011863905608237 C -0.4480308598262229 -2.3672748266868 -0.42397342481773037 -2.353775203699022 -0.3890784243844122 -2.3626261327326725 C -0.3553985886585099 -2.372200508194092 -0.33328826349602086 -2.431455326742536 -0.32878651173980034 -2.4625154978805925 C -0.3247764782632271 -2.4955142801538335 -0.3228181038554572 -2.5610059954289657 -0.33214662017705304 -2.593716525587276 C -0.3385106958290629 -2.610672307524288 -0.3460899361884885 -2.628351535889068 -0.36068604366918056 -2.6411559744324826 C -0.36653013905813836 -2.6479269824139258 -0.3716225260359229 -2.6476669922823994 -0.3818214309831942 -2.65127009342954 M -0.4054238078272745 -2.390461873069617 C -0.40640724438656906 -2.3943390953399857 -0.40714482180604 -2.3972470120427625 -0.40885170479310307 -2.399909069605715 C -0.41546163958493654 -2.4178341571103195 -0.4151677551891226 -2.4736186857178275 -0.4114318428357777 -2.515832936379045 C -0.40902977540435087 -2.522632206343893 -0.4048304067547635 -2.5711540086903106 -0.3928342005893316 -2.609273439924741 C -0.38966629375502904 -2.6049186303664276 -0.38602079963278163 -2.6027482910831217 -0.38479150393366346 -2.597901763245161 C -0.3700823485193523 -2.5521126734202078 -0.3752849170008198 -2.4424680963486733 -0.40011382369307114 -2.3979987204539355 C -0.4003455518411924 -2.3948449446113353 -0.402515891124498 -2.391199450489088 -0.4054238078272745 -2.390461873069617 M 0.04849145507812502 -2.4394419833825163 C 0.05549145507812503 -2.412441983382516 0.06149145507812498 -2.4074419833825162 0.090491455078125 -2.397441983382516 C 0.092491455078125 -2.396441983382516 0.09549145507812501 -2.396441983382516 0.09749145507812501 -2.396441983382516 C 0.151491455078125 -2.396441983382516 0.24349145507812503 -2.5434419833825164 0.254491455078125 -2.5874419833825164 C 0.258491455078125 -2.586441983382516 0.259491455078125 -2.5874419833825164 0.257491455078125 -2.589441983382516 C 0.260491455078125 -2.5924419833825163 0.258491455078125 -2.594441983382516 0.254491455078125 -2.5994419833825164 C 0.257491455078125 -2.598441983382516 0.259491455078125 -2.598441983382516 0.259491455078125 -2.598441983382516 C 0.261491455078125 -2.598441983382516 0.257491455078125 -2.6004419833825163 0.252491455078125 -2.6034419833825164 C 0.263491455078125 -2.6074419833825164 0.269491455078125 -2.6164419833825163 0.263491455078125 -2.6244419833825163 C 0.262491455078125 -2.6244419833825163 0.259491455078125 -2.6244419833825163 0.256491455078125 -2.625441983382516 L 0.262491455078125 -2.625441983382516 C 0.262491455078125 -2.627441983382516 0.260491455078125 -2.627441983382516 0.260491455078125 -2.6284419833825163 L 0.260491455078125 -2.6314419833825164 L 0.262491455078125 -2.6314419833825164 C 0.262491455078125 -2.6334419833825162 0.260491455078125 -2.634441983382516 0.259491455078125 -2.635441983382516 L 0.258491455078125 -2.6374419833825162 L 0.258491455078125 -2.6494419833825162 C 0.215491455078125 -2.5754419833825164 0.12049145507812503 -2.4354419833825163 0.10149145507812501 -2.4354419833825163 L 0.09749145507812501 -2.436441983382516 C 0.09649145507812501 -2.4384419833825164 0.09549145507812501 -2.4394419833825163 0.09549145507812501 -2.4424419833825164 C 0.09849145507812501 -2.469441983382516 0.10249145507812502 -2.4874419833825163 0.10749145507812502 -2.513441983382516 C 0.12049145507812503 -2.570441983382516 0.138491455078125 -2.6244419833825163 0.138491455078125 -2.683441983382516 C 0.138491455078125 -2.706441983382516 0.12749145507812498 -2.7324419833825164 0.10249145507812502 -2.7324419833825164 L 0.09449145507812501 -2.7324419833825164 C 0.088491455078125 -2.7324419833825164 0.083491455078125 -2.7324419833825164 0.077491455078125 -2.731441983382516 C 0.05449145507812503 -2.7294419833825163 -0.0015085449218749936 -2.6414419833825162 -0.016508544921875007 -2.618441983382516 C -0.016508544921875007 -2.6374419833825162 -0.010508544921875002 -2.711441983382516 -0.045508544921875005 -2.711441983382516 C -0.05150854492187501 -2.711441983382516 -0.072508544921875 -2.711441983382516 -0.077508544921875 -2.707441983382516 C -0.10950854492187499 -2.6934419833825163 -0.149508544921875 -2.6334419833825162 -0.165508544921875 -2.6034419833825164 C -0.162508544921875 -2.6244419833825163 -0.14450854492187498 -2.666441983382516 -0.139508544921875 -2.706441983382516 C -0.138508544921875 -2.7134419833825163 -0.139508544921875 -2.7294419833825163 -0.14250854492187498 -2.7324419833825164 C -0.150508544921875 -2.7454419833825163 -0.170508544921875 -2.7484419833825164 -0.18350854492187502 -2.7484419833825164 C -0.196508544921875 -2.6844419833825164 -0.24550854492187502 -2.558441983382516 -0.24550854492187502 -2.457441983382516 C -0.24550854492187502 -2.4434419833825163 -0.237508544921875 -2.4304419833825164 -0.227508544921875 -2.420441983382516 L -0.221508544921875 -2.4184419833825164 C -0.219508544921875 -2.4194419833825163 -0.214508544921875 -2.421441983382516 -0.21050854492187498 -2.421441983382516 C -0.208508544921875 -2.421441983382516 -0.205508544921875 -2.420441983382516 -0.203508544921875 -2.4184419833825164 L -0.199508544921875 -2.4184419833825164 C -0.196508544921875 -2.4234419833825163 -0.191508544921875 -2.425441983382516 -0.186508544921875 -2.429441983382516 C -0.173508544921875 -2.456441983382516 -0.166508544921875 -2.4874419833825163 -0.153508544921875 -2.5164419833825162 C -0.135508544921875 -2.562441983382516 -0.09450854492187499 -2.6414419833825162 -0.063508544921875 -2.6724419833825164 L -0.06150854492187499 -2.6724419833825164 C -0.06050854492187499 -2.646441983382516 -0.08950854492187499 -2.4874419833825163 -0.101508544921875 -2.4554419833825163 L -0.101508544921875 -2.453441983382516 L -0.102508544921875 -2.4504419833825164 L -0.102508544921875 -2.4474419833825163 C -0.101508544921875 -2.4434419833825163 -0.08750854492187499 -2.4274419833825163 -0.08550854492187498 -2.4264419833825164 L -0.08150854492187501 -2.429441983382516 L -0.077508544921875 -2.425441983382516 L -0.075508544921875 -2.425441983382516 L -0.072508544921875 -2.429441983382516 C -0.070508544921875 -2.425441983382516 -0.066508544921875 -2.421441983382516 -0.063508544921875 -2.4184419833825164 L -0.05750854492187499 -2.4274419833825163 L -0.054508544921874985 -2.4274419833825163 C -0.04850854492187501 -2.432441983382516 -0.03150854492187499 -2.472441983382516 -0.02850854492187499 -2.480441983382516 C -0.006508544921874998 -2.5324419833825162 0.013491455078124992 -2.585441983382516 0.04449145507812502 -2.6314419833825164 C 0.05949145507812503 -2.6524419833825164 0.07249145507812499 -2.675441983382516 0.088491455078125 -2.6894419833825163 C 0.089491455078125 -2.6714419833825165 0.05949145507812503 -2.5634419833825164 0.050491455078125025 -2.517441983382516 C 0.04449145507812502 -2.4914419833825163 0.04349145507812502 -2.4544419833825164 0.04849145507812502 -2.4394419833825163 M 0.5481839151413934 -2.548336188651333 C 0.5359927531402897 -2.545442131108221 0.5050320312029888 -2.5155350467113573 0.49415633001473935 -2.50606302878148 C 0.45635451177327013 -2.4738757247993366 0.33987964848553576 -2.3926623870886896 0.294535986181534 -2.4050297752066654 C 0.24050949492570203 -2.4197653865812745 0.31821909384452807 -2.5374650817205366 0.33733935582115393 -2.558163284104927 C 0.34435580314553665 -2.5572860914555267 0.45249657055438985 -2.531937039713414 0.4764419390381301 -2.6197300880041405 C 0.4824940651384161 -2.641919539769929 0.47468842883598655 -2.651304210350945 0.45697206889189756 -2.6623554813335732 C 0.4519729240095554 -2.6668285731552728 0.42995904203814606 -2.6811250412697705 0.42320573063116707 -2.682966992691597 C 0.41934669554146475 -2.6840195363612116 0.40680483149993235 -2.6874403032874605 0.4053138008926993 -2.685773921660013 L 0.40259487559563695 -2.6834059171775437 C 0.3419019827333578 -2.6584986339855154 0.2585796197485215 -2.5620238506137802 0.23656420635796127 -2.496508038986031 C 0.21709236724424902 -2.4365176440754315 0.23024741292112064 -2.39354154870557 0.2896237510997235 -2.3680180210399007 C 0.29155326864457465 -2.367491749205093 0.293219650272022 -2.36600071859786 0.29611392658929875 -2.3652113108456487 C 0.35110517661755625 -2.3502125635536357 0.47529811008469514 -2.429320813925053 0.5167840499439811 -2.486416494970047 C 0.5232744442077208 -2.4950115390246874 0.5358165270234176 -2.5029925263473314 0.5402020527220919 -2.51527125447146 L 0.5380971841570263 -2.518954938540948 C 0.5380971841570263 -2.518954938540948 0.536430802529579 -2.5204459691481813 0.5366939384469827 -2.521410727920607 C 0.5380096180340013 -2.5262345217827344 0.5446753633179553 -2.531672153602695 0.5462541788223778 -2.5374607062372485 L 0.544412446174716 -2.542109149079162 C 0.5468682355543746 -2.5435123947892055 0.5476576433065858 -2.546406671106482 0.5481839151413934 -2.548336188651333 M 0.4286427061286341 -2.6420959846609655 C 0.4433767860840926 -2.61631019617455 0.4078554062020676 -2.58868355013713 0.36496731450356 -2.591052429716257 C 0.38207027403814536 -2.608154732928349 0.41960895636221085 -2.6393772781380673 0.4286427061286341 -2.6420959846609655 M 0.7276371046913955 -2.421551949765133 L 0.7281713769499486 -2.42239726222437 C 0.756304766965965 -2.451935582525408 0.8194218548147041 -2.5031335631642433 0.8641102614441964 -2.5364043658734827 C 0.8739027783837798 -2.544411026350109 0.9700897070888991 -2.6161123146668217 0.9572820196869647 -2.6407692233014077 C 0.9535019215065211 -2.647890378948226 0.9386449532131883 -2.66556155585105 0.9335730784577689 -2.6687671894023683 C 0.9336608866005828 -2.6651627075075526 0.9321458779677374 -2.659022288235027 0.9288524362736049 -2.6575548953744237 C 0.8512698050733603 -2.5965718211976747 0.7145332238921178 -2.4925328507737734 0.6506988240975279 -2.4252263176372013 C 0.6387692181237321 -2.4138384073236288 0.6171349033531667 -2.3908393546386137 0.608052274957764 -2.3764690428315918 C 0.5939379641775139 -2.352266021714415 0.5895685545646053 -2.3266358001072063 0.6135007278516708 -2.300862731183272 L 0.6148803125694604 -2.3011737713839553 C 0.6159488570865665 -2.3028643963024287 0.6151035446273301 -2.3033986685609817 0.6150157364845161 -2.3070031504557975 L 0.6160842810016224 -2.308693775374271 L 0.6174162499471701 -2.299570954608296 L 0.6201754193827494 -2.300193035009663 C 0.6075359248647728 -2.2951687760264856 0.5965870552652693 -2.2890759725262018 0.586172457924319 -2.283828481485155 C 0.5831022482880562 -2.2845859858015776 0.5781181816754507 -2.28418713745808 0.5765153648997914 -2.2816512000803706 L 0.5769142132432887 -2.276667133467765 C 0.5899451327030926 -2.254235122010205 0.5798415755628257 -2.247608046251368 0.6077368867176325 -2.229977061719116 C 0.6094275116361055 -2.2289085172020098 0.6102728240953421 -2.2283742449434567 0.6119634490138153 -2.2273057004263506 C 0.6263337608208369 -2.218223072030948 0.6346112691275749 -2.2200893132350488 0.6482716923904157 -2.2173703361700414 C 0.7045638179896805 -2.2184642262543797 0.7856080837680152 -2.251233525673968 0.8386216144764874 -2.295804430553966 C 0.8546423588314103 -2.298691600502931 0.9227688588599869 -2.292305678967526 0.9428807415960367 -2.2866921085518834 L 0.9434150138545899 -2.28753742101112 L 0.9425697013953533 -2.288071693269673 L 0.9450178306302492 -2.2900733583888297 L 0.9511582499027749 -2.2885583497559843 L 0.951604714018514 -2.293008144110037 L 0.9532953389369871 -2.2919395995929306 C 0.9532953389369871 -2.2919395995929306 0.9558312763146969 -2.2903367828172714 0.95636554857325 -2.291182095276508 L 0.9560545083725664 -2.292561679994298 C 0.9585026376074623 -2.2945633451134544 0.9601932625259355 -2.2934948005963482 0.9621071195022782 -2.294651153256268 L 0.9617960793015948 -2.296030737974058 C 0.9606397266416747 -2.2979445949504007 0.9588612935803877 -2.3026176213623226 0.9577049409204677 -2.3045314783386655 C 0.9557032758013111 -2.3069796075735614 0.9531673384236015 -2.3085824243492206 0.9506314010458917 -2.3101852411248798 C 0.9269626521872678 -2.3251448643643666 0.8911410652969785 -2.3264916801132545 0.870805950503059 -2.3298803533518706 L 0.871340222761612 -2.3307256658111073 C 0.8745458563129306 -2.3357975405665266 0.8783735702656161 -2.3381102458863667 0.8845616053103836 -2.3460290982201792 C 0.9073998885131109 -2.3765481548955094 0.9454686427854366 -2.442394718573148 0.8984421852688722 -2.4709343803343318 C 0.8475002056568086 -2.5007658186704913 0.759239552687172 -2.445348699137143 0.7276371046913955 -2.421551949765133 M 0.6208451155563584 -2.306867726540742 C 0.6211561557570418 -2.305488141822952 0.6231578208761984 -2.303040012588056 0.6234688610768818 -2.301660427870267 L 0.6252949099104108 -2.3064212624250024 L 0.6288993918052267 -2.306509070567816 C 0.6343299225335715 -2.311357713265366 0.6358449311664169 -2.317498132537892 0.6421207743539983 -2.3218125029768886 C 0.6813786502551458 -2.350234662988578 0.8457069257921815 -2.4604944374261493 0.8817443213386705 -2.4389003150261557 C 0.900875467700428 -2.4279916377972244 0.8261800064491486 -2.3509878192655527 0.8001435130967727 -2.337869091662935 C 0.7402469056026921 -2.336687393435783 0.6754064238665779 -2.32206850400366 0.6234688610768818 -2.301660427870267 C 0.6220892763590922 -2.301349387669583 0.6215550041005391 -2.3005040752103465 0.6201754193827494 -2.300193035009663 M 0.6439245529825172 -2.2591567260472285 L 0.6427682003225972 -2.2610705830235713 L 0.642233928064044 -2.2602252705643346 C 0.6392515265705951 -2.2573782929859414 0.6361813169343323 -2.2581357973023644 0.6311972503217267 -2.257736948958867 L 0.6288845450018866 -2.2615646629115527 C 0.6700964702499489 -2.2781048327216884 0.7186051674304568 -2.2912161369226363 0.7413006033164582 -2.2934336106979925 L 0.7305749657748244 -2.289565704374735 C 0.7064523293987912 -2.2776033294320372 0.6710697832225712 -2.2609277357068454 0.6439245529825172 -2.2591567260472285 M 1.174083535145756 -2.1407452517314476 C 1.196889382557043 -2.1531506265284093 1.2189179178890945 -2.1606167922863166 1.2368447933231985 -2.1780416922048276 C 1.2526204437052102 -2.193375604133117 1.236669851862675 -2.215524613588911 1.2248209199180877 -2.227714888884102 C 1.2227299319278662 -2.229866113936194 1.2192047939029167 -2.230623346994806 1.2163766518747074 -2.2306635050360533 L 1.2141852687813675 -2.225744375017623 C 1.1957220295155129 -2.220349118229313 1.1744708062626965 -2.2178221615104596 1.1567648000554536 -2.2159520427470993 C 1.1606112024103827 -2.2378199459141612 1.1481054325103024 -2.253555438254925 1.1334685165787532 -2.2686140136195725 C 1.0853757928036634 -2.3180921898176994 0.9134700392720586 -2.2639589107489866 0.8717792931618188 -2.2164627878675183 C 0.848075659547554 -2.190633777946875 0.8363414320016191 -2.161098918815668 0.8642212718712365 -2.1324159181211018 C 0.8900101237506326 -2.105884142478628 1.0383527968123387 -2.1440869087254297 1.0844606974254158 -2.154039873160943 L 1.0851576934221563 -2.153322798143579 C 1.0523730328296423 -2.1354016924345647 1.0181140641611524 -2.1132584527038607 0.9915822885186786 -2.0874696008244644 C 0.9679188129456613 -2.0644687329320304 0.9427007132141734 -2.0315894469614877 0.9570766018776141 -1.9981479484134805 C 0.9570364438363667 -1.9953198063852713 0.9584304358298475 -1.993885656350543 0.959784269782081 -1.9896233642876056 C 0.9618350997310547 -1.9846439972073038 0.9632290917245356 -1.9832098471725754 0.9681080637017188 -1.9781903220510264 C 1.0029578635387404 -1.9423365711828184 1.1625729466720358 -1.9775505632364212 1.2052360253426584 -1.9939170447869645 C 1.2073470923535035 -1.9931798907489766 1.2372232948353132 -2.0054848704428196 1.2401116739253937 -2.0096869254438863 L 1.2422628989774862 -2.0117779134341074 L 1.2423231360393574 -2.016020126476421 L 1.2466055071229185 -2.0187880314427593 C 1.2416863771044881 -2.0209794145360993 1.254453174272677 -2.0236268453786947 1.254513411334548 -2.0278690584210084 C 1.2545535693757954 -2.0306972004492176 1.2659665325917508 -2.0376069233547507 1.266026769653622 -2.041849136397065 L 1.1943852747041672 -2.02660131027636 C 1.1518426701572873 -2.0187192548104442 1.012821972321315 -1.9895774365212682 0.9940030804093234 -2.0089384619901005 C 0.991912092419102 -2.011089687042193 1.0063138298282563 -2.029271820019315 1.009182129897713 -2.032059804006277 C 1.0572261560611116 -2.078758535787886 1.1156648851137456 -2.110458929266719 1.174083535145756 -2.1407452517314476 M 0.8887222965853603 -2.164598208094904 L 0.8930448257101689 -2.1701942550894513 C 0.9324839516651977 -2.208529034910175 1.0368900281865427 -2.2402838957257893 1.0934327897301028 -2.2380666638867357 C 1.0976750027724165 -2.2380064268248647 1.1082504168472656 -2.23573472764903 1.112432392827708 -2.2314322775448447 C 1.1173113648048911 -2.226412752423296 1.1157366616257967 -2.215120263331083 1.114242274529197 -2.209484058295288 C 1.045469079649199 -2.197024216161545 0.9582125664827226 -2.1777550462253874 0.8887222965853603 -2.164598208094904 M 1.3857358510716002 -1.925752454297055 C 1.3812911637877268 -1.9347660415379138 1.3780216661588698 -1.9551206573597588 1.3684940594120119 -1.970392353718619 C 1.365847501982329 -1.97463449159608 1.3630920238594715 -1.9752727237751915 1.357900183703312 -1.977926927194843 C 1.2879622536499677 -2.0050135648572316 1.187356718205791 -1.990573127260313 1.1235144546474927 -1.953100932451992 C 1.0919124389578991 -1.9357425741092602 1.0625136519353204 -1.8902924770620473 1.080502596467195 -1.8520119614616908 C 1.1138492200811982 -1.79856102420568 1.179342462850669 -1.7804879737841501 1.2394413160575684 -1.7767292714528136 C 1.2576710399456983 -1.7739585013500185 1.2747332201687804 -1.7692806806998582 1.2889386475657987 -1.7710711645640802 C 1.2936011762360216 -1.769265388719921 1.3099238495767862 -1.7676621622821738 1.3143761828506284 -1.7680825530749356 L 1.3074874875434843 -1.769678133522714 C 1.3110913932418342 -1.7695692128295393 1.3141659874542475 -1.7703087197118568 1.3199960597895184 -1.7704099944150629 C 1.324977704549297 -1.7699819576323323 1.3308077768845679 -1.7700832323355384 1.3361085377339021 -1.7710329346142368 L 1.3425768422482842 -1.7738896874403005 C 1.348406914583555 -1.7739909621435066 1.3538089501360955 -1.769110592086934 1.3611256822259699 -1.7724966563989344 C 1.362083030494637 -1.7766298735832207 1.4048158793688357 -1.7950392089078568 1.4026986334250895 -1.7984329192098258 L 1.3899798657826747 -1.799927224954398 C 1.3571243237047645 -1.805359844466813 1.1501137644410149 -1.8141136067042525 1.1215309442004404 -1.859928695780833 C 1.1194136982566942 -1.863322406082802 1.1181448798884401 -1.8672454278707076 1.118253800581615 -1.8708493335690572 C 1.1181831098382835 -1.9144153180388108 1.274886139968154 -1.9579602413722716 1.3476884688375304 -1.9338392772291215 L 1.3498057147812768 -1.9304455669271525 C 1.3479999389371173 -1.9257830382569296 1.3258319012811446 -1.9084170339242292 1.3094939359604425 -1.891152304294735 C 1.3071588486303467 -1.8873382032000041 1.3062015003616798 -1.8832049860157178 1.3088480577913626 -1.8789628481382565 C 1.3104359922491722 -1.8764175654117798 1.312872354282474 -1.8744015941712397 1.3172157668631415 -1.8712180792656516 L 1.3191228174105067 -1.8700505356006039 C 1.3279185632650161 -1.8672874114877775 1.3377729320913985 -1.8628274322239669 1.3403182148178752 -1.8644153666817764 C 1.3454087802708288 -1.8675912355973958 1.3640818329216264 -1.888670066321621 1.3771273626435656 -1.8979874776720982 C 1.387627609639028 -1.9057169545647656 1.389962696969124 -1.9095310556594964 1.3857358510716002 -1.925752454297055 M 1.441993166789153 -1.7124811811997063 L 1.4425537593001918 -1.7137795401780196 L 1.442922642533829 -1.7128500644333435 C 1.5350597739283405 -1.724671613333152 1.630664957739492 -1.714200279681899 1.7189651534837256 -1.7492441868774455 C 1.7310483381645154 -1.7540396689147308 1.742202047100629 -1.7584662677183789 1.7359310321287944 -1.7742673553778732 C 1.7326110830260584 -1.7826326370799586 1.727609356390206 -1.7871028418471033 1.7213092707760402 -1.792133639125287 L 1.7162930088190222 -1.7912186987017764 C 1.706806542094859 -1.7853020316424135 1.5329772924170069 -1.7787147745171072 1.3873575923495793 -1.7661091030842788 C 1.3141788590822283 -1.7607357431125406 1.247123037472807 -1.7534888963302846 1.2136619106644662 -1.7402090999193407 C 1.1941429200262672 -1.7324625520129566 1.1377847121923286 -1.6982609086350926 1.1473756762668994 -1.674094539273513 C 1.1499578589023607 -1.66758820906078 1.1586774885169175 -1.6645935372281844 1.1634875058753684 -1.65789549773805 L 1.1646086908974462 -1.6604922156946769 C 1.164992109452249 -1.664947885140656 1.1676033627300417 -1.669211845309234 1.1696540234967954 -1.6721774464994983 L 1.1705834992414716 -1.6725463297331356 L 1.1707606731977074 -1.6693890192654697 C 1.1752308779648524 -1.674390745901322 1.1797010827319971 -1.6793924725371745 1.18620741294473 -1.681974655172636 C 1.1880663644340823 -1.6827124216399105 1.191784267412787 -1.6841879545744598 1.194749868603051 -1.6821372938077062 C 1.2207751894539831 -1.6924660243495515 1.257733439321296 -1.6942232285907444 1.287078709274964 -1.6961866774305043 C 1.2622790707965175 -1.6583716284243435 1.237642070953141 -1.6120141237598613 1.2560862326350075 -1.5655403365260545 L 1.258668415270469 -1.5590340063133215 L 1.2592290077815078 -1.5603323652916348 C 1.257384591613321 -1.5649797440150155 1.2579742547666912 -1.5770483933746398 1.2561298385985045 -1.5816957720980205 L 1.2579887900878568 -1.5824335385652952 C 1.259464323022406 -1.5787156355865906 1.2602020894896808 -1.5768566840972382 1.259641496978642 -1.575558325118925 C 1.2611170299131913 -1.5718404221402202 1.261854796380466 -1.569981470650868 1.2620319703367018 -1.5668241601832023 C 1.262400853570339 -1.5658946844385262 1.262400853570339 -1.5658946844385262 1.2627697368039765 -1.56496520869385 C 1.2638763865048885 -1.5621767814598215 1.2662813951841139 -1.5588277617147543 1.2673880448850259 -1.556039334480726 L 1.2672108709287901 -1.5591966449483916 C 1.2701619367978887 -1.5517608389909825 1.2734818859006247 -1.5433955572888973 1.2788524957701144 -1.5379958767770763 C 1.2792213790037517 -1.5370664010324 1.2795902622373891 -1.536136925287724 1.2799591454710264 -1.5352074495430479 C 1.2814346784055757 -1.5314895465643432 1.2842085703184385 -1.5272110510746 1.2856841032529878 -1.5234931480958953 L 1.2860529864866252 -1.5225636723512193 C 1.2860529864866252 -1.5225636723512193 1.2853152200193505 -1.5244226238405716 1.286613578997664 -1.5238620313295326 C 1.2890185876768894 -1.5205130115844654 1.2912464223998792 -1.5203213023070639 1.2951414993348196 -1.5186395247739475 C 1.2919987241883193 -1.523847496008367 1.2908920744874073 -1.5266359232423956 1.2897854247864955 -1.529424350476424 C 1.2886787750855835 -1.5322127777104524 1.2875721253846715 -1.5350012049444808 1.2853588259828475 -1.5405780594125376 C 1.2628569487309702 -1.597276079837782 1.3033095715550065 -1.655289744664754 1.3498124294311449 -1.6845041967279315 C 1.3615121955571317 -1.6848440093192376 1.455746343784142 -1.6480075422257465 1.4585202356970046 -1.643729046736003 C 1.476505552115992 -1.6336529168584701 1.5846673011919785 -1.5969645530788836 1.6045261044214836 -1.5930113348592807 C 1.6223487822054006 -1.591477660640069 1.638873101011004 -1.590504578931896 1.6576252545395969 -1.5893397879463214 L 1.6604136817736255 -1.5904464376472334 L 1.6602365078173895 -1.593603748114899 L 1.6594987413501148 -1.5954626996042514 C 1.6598821599049178 -1.5999183690502305 1.6610033449269954 -1.6025150870068576 1.6608261709707597 -1.6056723974745233 C 1.6584211622915341 -1.6090214172195905 1.6556472703786715 -1.613299912709334 1.6538028542104848 -1.6179472914327147 C 1.65306508774321 -1.619806242922067 1.65306508774321 -1.619806242922067 1.6532567970206116 -1.6220340776450566 L 1.6517812640860623 -1.625751980623761 L 1.6469567114064456 -1.6270648749232401 C 1.6252244213664229 -1.624895181484913 1.4731537822686762 -1.6990269609347748 1.441993166789153 -1.7124811811997063" fill="#404040" fill-rule="nonzero"></path></g><g transform="matrix(1,0,0,1,0,0)"><g clip-path="url(#SvgjsClipPath1002)"><g clip-path="url(#SvgjsClipPath1000cd50e368-e860-4cd9-968e-ab1b0d943123)"><path d=" M 0.8487801414333042 -0.7701372157296411 C 0.8909108748458533 -0.8749502598291532 0.9094072943928256 -0.9777081462012238 0.9094072943928256 -1.0974210838246865 C 0.9094072943928256 -1.599907148184112 0.5024860643594259 -2.006828378217512 0 -2.006828378217512 C -0.5024860643594256 -2.006828378217512 -0.9094072943928256 -1.599907148184112 -0.9094072943928256 -1.0974210838246865 C -0.9094072943928256 -0.8543986825547389 -0.8189803543854035 -0.6391209106052511 -0.6633021565317162 -0.4762496607055189 C -0.6550815256219507 -0.468029029795753 -0.7203327834682155 -0.4644325037727308 -0.7121121525584497 -0.45621187286296494 C -0.6987536273300807 -0.4536429257036634 -0.646860894712185 -0.43925682161157353 -0.5934267937987082 -0.44028440047529394 C -0.5759579531154563 -0.4407981899071547 -0.558489112432204 -0.43925682161157353 -0.5415340611808124 -0.44131197933901456 C -0.5071101692461687 -0.4454222947938977 -0.47371385617524586 -0.4567256622948255 -0.44185891139990396 -0.47316692411435657 C -0.360680181165968 -0.515811446958766 -0.3093012379799327 -0.6201107016264178 -0.28155660865947374 -0.7367409026587179 C -0.25381197933901467 -0.8533711036910183 -0.25021545331599193 -0.9813046722242462 -0.26049124195319917 -1.0686488756405061 C -0.2640877679762216 -1.0989624521202668 -0.27487734604528924 -1.1688378148532752 -0.2810428192276131 -1.1868204449683875 C -0.2846393452506357 -1.1868204449683875 -0.28515313468249615 -1.1554792896249055 -0.2933737655922616 -1.1544517107611854 C -0.2969702916152839 -1.1539379213293244 -0.3005668176383065 -1.1395518172372348 -0.30519092252505 -1.1385242383735141 C -0.31238397457109457 -1.136982870077933 -0.3200908160489999 -1.1349277123504915 -0.3293390258224864 -1.13235876519119 C -0.3380734461641123 -1.1292760286000276 -0.35297333968806255 -1.1446897115558383 -0.3637629177571299 -1.1400656066690953 C -0.37198354866689565 -1.1364690806460724 -0.37609386412177837 -1.1133485562123568 -0.38534207389526487 -1.1082106618937533 C -0.3884248104864272 -1.1061555041663118 -0.3920213365094495 -1.1046141358707307 -0.3956178625324718 -1.1025589781432892 C -0.40794880889712026 -1.0953659260972444 -0.42901417560339483 -1.0974210838246856 -0.4434002796954848 -1.087659084619339 C -0.45830017321943484 -1.077383295982132 -0.46652080412920055 -1.0558041398439972 -0.4834758553805924 -1.0419318251837677 C -0.4886137496991959 -1.037821509728885 -0.5009446960638444 -1.049638666661673 -0.5065963798143083 -1.04501456177493 C -0.5173859578833758 -1.0357663520014435 -0.522010062770119 -1.0090493015447053 -0.5338272197029071 -0.9977459340437778 C -0.5435892189082536 -0.9884977242702913 -0.5533512181136006 -0.9787357250649447 -0.5636270067508077 -0.9684599364277373 C -0.5697924799331319 -0.9622944632454131 -0.5728752165242941 -0.9746254096100615 -0.5795544791384788 -0.9674323575640169 C -0.5918854255031271 -0.954587621767508 -0.6072991084589376 -0.9217050981284454 -0.6201438442554464 -0.9068052046044952 C -0.6247679491421897 -0.9016673102858916 -0.6304196328926536 -0.9170809932417021 -0.6350437377793968 -0.9119430989230985 C -0.6442919475528833 -0.9011535208540309 -0.6519987890307886 -0.8692985760786891 -0.661760788236135 -0.857481419145901 L -0.671522787441482 -0.8543986825547387 L -0.6771744711919458 -0.8626193134645044 C -0.6823123655105492 -1.0388490885926056 -0.626823106869631 -1.1431483432602576 -0.5595166912959249 -1.2042892856516398 C -0.4973481700408218 -1.2608061231562786 -0.42593143901223285 -1.2793025427032512 -0.3832869161678234 -1.2854680158855754 C -0.39099375764572875 -1.2880369630448771 -0.3987005991236341 -1.2911196996360395 -0.40640744060153944 -1.2936886467953412 C -0.41668322923874634 -1.2967713833865036 -0.4136004926475841 -1.313726434637895 -0.42439007071665175 -1.3162953817971967 C -0.43261070162641746 -1.318350539524638 -0.45418985776455245 -1.30653338259185 -0.46241048867431783 -1.3085885403192914 C -0.4773103821982679 -1.3116712769104537 -0.4855310131080336 -1.3291401175937057 -0.5004309066319839 -1.331195275321147 C -0.512248063564772 -1.3322228541848675 -0.5302306936798844 -1.3173229606609174 -0.5420478506126726 -1.3178367500927777 C -0.5497546920905779 -1.3178367500927777 -0.5512960603861591 -1.3337642224804487 -0.5590029018640643 -1.3337642224804487 C -0.5749303742517353 -1.3332504330485881 -0.5980508986854514 -1.3162953817971967 -0.6144921605049825 -1.314240224069755 L -0.6232265808466084 -1.3193781183883588 L -0.6211714231191672 -1.3296539070255657 C -0.5677373222056905 -1.37897769248416 -0.5081377481098894 -1.4005568486222946 -0.45367606833269175 -1.407236111236479 C -0.3997281779873548 -1.413915373850664 -0.34989060309690034 -1.405694742940898 -0.312897764002955 -1.395418954303691 C -0.2944013444559823 -1.3902810599850874 -0.27950145093203194 -1.385143165666484 -0.2681980834311043 -1.3805190607797408 L -0.2548395582027351 -1.3743535875974167 L -0.25432576877087465 -1.3743535875974167 C -0.21270882479018594 -1.4164843210099656 -0.1438610409208987 -1.4524495812401905 -0.06936157330114723 -1.4616977910136768 C -0.03750662852580533 -1.4658081064685597 -0.004110315454882718 -1.4642667381729786 0.028258418752319936 -1.4560461072632127 L 0.034423891934644124 -1.4498806340808885 L 0.03185494477534223 -1.4411462137392628 C 0.025689471593018043 -1.436008319420659 0.005651683750464209 -1.4452565291941455 -0.00513789431860312 -1.4411462137392628 C -0.014386104092089624 -1.4380634771481007 -0.012844735796508466 -1.42316358362415 -0.025689471593017266 -1.4180256893055467 C -0.03442389193464346 -1.4144291632825245 -0.05446167977719729 -1.423677373056011 -0.0647374684144042 -1.418539478737407 C -0.06884778386928725 -1.4164843210099658 -0.06319610011882304 -1.4000430591904345 -0.06730641557370609 -1.3974741120311327 C -0.07141673102858914 -1.394905164871831 -0.07552704648347186 -1.3923362177125291 -0.07963736193835458 -1.3897672705532271 C -0.08528904568881834 -1.386170744530205 -0.10686820182695334 -1.386170744530205 -0.11303367500927752 -1.382060429075322 C -0.11714399046416024 -1.37897769248416 -0.10481304409951153 -1.3722984298699756 -0.10892335955439447 -1.3692156932788133 C -0.11714399046416024 -1.3625364306646284 -0.12587841080578632 -1.3548295891867235 -0.1351266205792726 -1.3466089582769576 C -0.002055157727441137 -1.3594536940734667 0.14694377751206134 -1.332222854184868 0.3005668176383073 -1.128762239168168 L 0.3005668176383073 -1.1179726610991005 L 0.2897772395692396 -1.1164312928035194 C 0.28155660865947374 -1.1210553976902626 0.25946366308947877 -1.14623107985142 0.2512430321797131 -1.150855184738163 C 0.24250861183808692 -1.155479289624906 0.24713271672483017 -1.138010448941654 0.2383982963832042 -1.142120764396537 C 0.23017766547343854 -1.1457172904195594 0.2219570345636731 -1.1493138164425818 0.2132226142220469 -1.152396553033744 C 0.20448819388042117 -1.1559930790567663 0.19010208978833132 -1.1760308668993205 0.18136766944670513 -1.1791136034904826 C 0.17160567024135853 -1.1827101295135047 0.16749535478647581 -1.1688378148532752 0.1582471450129893 -1.1719205514444373 C 0.13512662057927327 -1.1791136034904826 0.11200609614555745 -1.1847652872409462 0.09042694000742257 -1.1893893921276892 C 0.07963736193835524 -1.1919583392869912 0.07090294159672905 -1.2094271799702432 0.060627152959522146 -1.2114823376976847 C 0.03134115534348214 -1.2166202320162882 0.003596526023022628 -1.2037754962197793 -0.017468840683251607 -1.2053168645153605 C -0.03339631307092272 -1.206344443379081 -0.04624104886743152 -1.2068582328109416 -0.056003048072778006 -1.2068582328109416 C -0.010789578069066996 -1.1785998140586225 0.1289611473969493 -1.1128347667804968 0.14797135637578218 -0.9576703583586703 C 0.15105409296694428 -0.9319808867656525 0.14283346205717862 -0.8518297353954372 0.1423196726253183 -0.8518297353954372 C 0.1335852522836921 -0.8086714231191676 0.11663020103230048 -0.7608890059561548 0.08837178227998099 -0.7074549050426777 L 0.07963736193835524 -0.7028308001559347 L 0.07244430989231021 -0.7100238522019797 C 0.07038915216486907 -0.7202996408391866 0.06782020500556718 -0.7300616400445332 0.0657650472781256 -0.7398236392498803 C 0.062168521255103304 -0.7547235327738304 0.05805820580022025 -0.76859584743406 0.05343410091347722 -0.7824681620942895 C 0.04880999602673408 -0.7968542661863796 0.05651683750463943 -0.823571316643118 0.05086515375417566 -0.8374436313033475 C 0.047782417163013347 -0.8461780516449733 0.03134115534348214 -0.8420677361900903 0.027744629320459513 -0.8502883670998562 C 0.023120524433716483 -0.8600503663052028 0.019010208978833765 -0.8703261549424097 0.013872314660230312 -0.8795743647158962 C 0.010789578069067995 -0.8857398378982206 0.019010208978833765 -0.9073189940363551 0.01592747238767145 -0.9129706777868194 C 0.011817156932788397 -0.9206775192647247 -0.00308273659116165 -0.9124568883549586 -0.00719305204604459 -0.9196499404010039 C -0.012330946364648154 -0.9283843607426296 -0.017468840683251607 -0.9371187810842558 -0.02260673500185506 -0.945853201425882 C -0.030313576479760407 -0.9581841477905304 -0.023634313865575796 -0.98644256654285 -0.03134115534348114 -0.9972321446119172 C -0.03853420738952584 -1.0075079332491246 -0.05959957409580041 -1.0003148812030795 -0.06730641557370576 -1.0095630909765658 C -0.0750132570516111 -1.0198388796137727 -0.08272009852951645 -1.0296008788191195 -0.0904269400074218 -1.0383352991607457 L -0.08272009852951645 -1.0635109813219028 C -0.0950510448941646 -1.0778970854139929 -0.12176809535090338 -1.0732729805272494 -0.13307146285183102 -1.0845763480281776 C -0.14848514580764172 -1.0999900309839878 -0.13872314660229523 -1.1154037139397985 -0.1510540929669434 -1.1251657131451451 C -0.15978851330856947 -1.1328725546230505 -0.1978089312662359 -1.166782657125834 -0.20397440444855974 -1.1714067620125772 C -0.19986408899367702 -1.145203500987699 -0.18753314262902865 -1.0871452951874792 -0.18445040603786633 -1.0624834024581822 C -0.14797135637578107 -0.7603752165242943 -0.20757093047158248 -0.5862005991236348 -0.2825841875231939 -0.4854978704790054 C -0.35708365514294527 -0.3847951418343758 -0.44699680571850714 -0.3591056702413584 -0.46652080412920055 -0.352940197059034 C -0.4798793293575701 -0.348316092172291 -0.49272406515407874 -0.34523335558112866 -0.5060825903824477 -0.3426644084218271 C -0.3611939705978283 -0.24504441636835983 -0.18701935319716823 -0.1875 0.001027578863721068 -0.1875 C 0.11251988557741754 -0.1875 0.21681914024506932 -0.20599641954697256 0.31289776400295544 -0.24093410091347645 C 0.25535334763459605 -0.3087543059190434 0.22658113945041614 -0.37040903774228595 0.21681914024506932 -0.42589829638320387 C 0.19112966865205172 -0.5682179690085218 0.2872082924099376 -0.6637828033345474 0.31649429002597806 -0.7012894318603535 C 0.3087874485480727 -0.6987204847010515 0.29799787047900506 -0.6951239586780293 0.28566692411435646 -0.6899860643594256 C 0.26871187286296505 -0.6827930123133807 0.24302240126994745 -0.6863895383364031 0.22092945569995204 -0.6740585919717548 C 0.2132226142220467 -0.6699482765168716 0.21065366706274513 -0.651451856969899 0.20243303615297925 -0.646827752083156 C 0.18599177433344793 -0.637065752877809 0.1690367230820563 -0.6252485959450209 0.15208167183066446 -0.6129176495803721 C 0.14488861978461987 -0.6077797552617688 0.13820935717043492 -0.6190831227626965 0.1315300945562502 -0.6134314390122328 C 0.125364621373926 -0.6082935446936295 0.11868535875974151 -0.5867143885554944 0.11251988557741732 -0.5815764942368911 C 0.10635441239509336 -0.5764385999182875 0.10070272864462926 -0.5713007055996837 0.09505104489416538 -0.5656490218492198 C 0.08888557171184142 -0.5594835486668956 0.08837178227998066 -0.5759248104864267 0.08220630909765647 -0.5697593373041026 C 0.0765546253471926 -0.5641076535536387 0.06525125784626495 -0.5353354453694592 0.0601133635276615 -0.529169972187135 L 0.050865153754174997 -0.5276286038915539 L 0.04778241716301268 -0.5373906030969005 C 0.11919914819160182 -0.7583200587968524 0.23223282320087935 -0.8225437377793965 0.34321134048271607 -0.8466918410768329 C 0.33396313070922956 -0.8518297353954367 0.32471492093574306 -0.8559400508503194 0.3159805005941173 -0.8595365768733418 C 0.31187018513923437 -0.8615917346007833 0.3195770266171397 -0.8703261549424095 0.3159805005941173 -0.8718675232379902 C 0.3103288168436532 -0.8744364703972922 0.29285997616040127 -0.868270997214968 0.2872082924099374 -0.8698123655105492 C 0.28309797695505423 -0.8708399443742698 0.27898766150017174 -0.872381312669851 0.274877346045289 -0.8734088915335714 C 0.27025324115854577 -0.8744364703972922 0.2712808200222666 -0.8908777322168233 0.26717050456738345 -0.8913915216486838 C 0.2574085053620371 -0.8934466793761253 0.2435361907018071 -0.8795743647158956 0.23582934922390197 -0.8806019435796164 C 0.2240121922911137 -0.8821433118751976 0.22092945569995182 -0.8955018371035663 0.21322261422204625 -0.8960156265354269 C 0.20346061501669988 -0.8965294159672876 0.18958830035647012 -0.8826571013070577 0.18342282717414593 -0.88573983789822 L 0.1787987222874029 -0.8924191005124045 L 0.1823952483104253 -0.8996121525584495 C 0.20654335160786175 -0.9155396249461203 0.2332604020646002 -0.9253016241514671 0.25997745252133886 -0.9304395184700707 C 0.32317355264016234 -0.9422566754028587 0.38791102105456654 -0.9288981501744895 0.433124491058278 -0.9032086785814719 L 0.4336382804901383 -0.9037224680133322 L 0.4428864902636248 -0.9124568883549584 C 0.45059333174153016 -0.919649940401003 0.4613829098105974 -0.9283843607426294 0.47525522447082713 -0.9376325705161153 C 0.5024860643594259 -0.9566427794949484 0.5405064823170919 -0.9771943567693626 0.5862337417526634 -0.9859287771109886 C 0.6324747906200953 -0.9946631974526143 0.6859088915335722 -0.9915804608614525 0.7424257290382109 -0.9622944632454122 L 0.7465360444930932 -0.9540738323356464 L 0.740370571310769 -0.9473945697214619 C 0.7264982566505392 -0.9448256225621599 0.7033777322168234 -0.9535600429037858 0.690532996420315 -0.9494497274489031 C 0.68385373380613 -0.9473945697214619 0.6874502598291526 -0.9330084656293718 0.6807709972149679 -0.9309533079019301 C 0.6715227874414819 -0.9273567818789077 0.6525125784626488 -0.9355774127886731 0.6432643686891623 -0.9314670973337906 C 0.6314472117563742 -0.9263292030151868 0.6293920540289327 -0.9083465729000746 0.6186024759598653 -0.9016673102858901 C 0.6124370027775411 -0.8980707842628677 0.5918854255031271 -0.9026948891496107 0.5857199523208027 -0.8985845736947278 C 0.5780131108428973 -0.8934466793761242 0.584692373457082 -0.8795743647158947 0.5769855319791769 -0.8739226809654308 C 0.5713338482287128 -0.8698123655105479 0.5661959539101092 -0.8651882606238048 0.5605442701596454 -0.8605641557370616 C 0.5965095303898703 -0.8662158394875255 0.6591918410768335 -0.8692985760786875 0.7244430989230987 -0.8359022630077644 C 0.7573256225621608 -0.8194610011882333 0.7902081462012235 -0.7927439507314948 0.8210355121128446 -0.7542097433419683 C 0.8431284576828396 -0.7264651140215095 0.8611110877979521 -0.6874171172001222 0.8657351926846958 -0.6807378545859377 C 0.8729282447307404 -0.7115652204975611 0.8456974048421418 -0.7619165848198757 0.8487801414333042 -0.7701372157296411 Z" fill="#4e888f" transform="matrix(1,0,0,1,0,0)" fill-rule="nonzero"></path></g><g clip-path="url(#SvgjsClipPath1000cd50e368-e860-4cd9-968e-ab1b0d943123)"><path d=" M 0.44031754310432325 -0.7120790099294214 C 0.43672101708130084 -0.7064273261789575 0.4187383869661886 -0.6637828033345485 0.4136004926475848 -0.654534593561062 C 0.4069212300334003 -0.6422036471964134 0.41822459753432784 -0.6314140691273462 0.4100039666245624 -0.6134314390122335 C 0.4038384934422382 -0.6000729137838643 0.3812317584403825 -0.5969901771927024 0.3750662852580583 -0.5810627048050312 C 0.3740387063943379 -0.5779799682138691 0.38893859991828783 -0.5641076535536398 0.3879110210545672 -0.5610249169624777 C 0.3843144950315448 -0.5507491283252706 0.38020417957666186 -0.5404733396880637 0.37660765355363945 -0.5291699721871359 C 0.37301112753061705 -0.5188941835499286 0.35400091855178417 -0.5194079729817893 0.35091818196062186 -0.5086183949127216 C 0.34783544536945954 -0.4968012379799336 0.36068018116596845 -0.47368071354621755 0.35759744457480636 -0.46083597774970864 C 0.3555422868473651 -0.4521015574080829 0.35348712911992364 -0.4428533476345964 0.3519457608243425 -0.4336051378611099 C 0.3504043925287613 -0.42589829638320453 0.3360182884366715 -0.42949482240622716 0.33499070957295063 -0.4217879809283218 C 0.3339631307092302 -0.4156225077459976 0.3462940770738784 -0.3986674564946058 0.345266498210158 -0.3925019833122816 C 0.3437251299145768 -0.382739984106935 0.342697551050856 -0.3729779849015882 0.34218376161899566 -0.36270219626438127 C 0.34166997218713535 -0.3544815653546154 0.3272838680950453 -0.353453986490895 0.32677007866318497 -0.34523335558112933 C 0.32625628923132466 -0.33136104092089935 0.33910102502783335 -0.31029567421462545 0.33910102502783335 -0.29590957012253516 C 0.33910102502783335 -0.28255104489416594 0.3396148144596939 -0.2686787302339366 0.3406423933234145 -0.25480641557370665 C 0.3406423933234145 -0.253778836709986 0.3406423933234145 -0.2527512578462656 0.3411561827552748 -0.2517236789825448 C 0.40794880889712093 -0.2789545188711433 0.4711449090159444 -0.3138922002376474 0.5297169042480246 -0.35705051251391695 C 0.5009446960638447 -0.4269258752469254 0.47474143503896704 -0.5111873420720232 0.4577863837875752 -0.6077797552617696 C 0.4526484894689716 -0.6314140691273458 0.44391406912734566 -0.6879309066319845 0.44031754310432325 -0.7120790099294214 Z" fill="#4e888f" transform="matrix(1,0,0,1,0,0)" fill-rule="nonzero"></path></g><g clip-path="url(#SvgjsClipPath1000cd50e368-e860-4cd9-968e-ab1b0d943123)"><path d=" M 0.7223879411956572 -0.6797102757222193 C 0.7167362574451933 -0.6822792228815209 0.710056994831009 -0.6684069082212916 0.7044053110805447 -0.6709758553805931 C 0.6874502598291529 -0.6786826968584985 0.6746055240326442 -0.6956377481098903 0.6602194199405541 -0.7007756424284939 C 0.6458333158484643 -0.7053997473152369 0.629392054028933 -0.6982066952691919 0.6175748970961449 -0.7012894318603542 C 0.6144921605049826 -0.7023170107240748 0.6108956344819604 -0.7028308001559354 0.6078128978907983 -0.703858379019656 C 0.5985646881173118 -0.7053997473152371 0.5898302677756858 -0.7249237457259305 0.5816096368659199 -0.7259513245896514 C 0.5718476376605736 -0.7274926928852326 0.5636270067508077 -0.7095100627701199 0.5559201652729023 -0.7100238522019804 C 0.5476995343631367 -0.7100238522019804 0.5405064823170919 -0.7100238522019804 0.5348547985666278 -0.7089962733382595 C 0.530744483111745 -0.7084824839063992 0.5240652204975605 -0.7202996408391873 0.5209824839063985 -0.7197858514073272 C 0.5143032212922135 -0.718244483111746 0.5060825903824481 -0.7274926928852326 0.5035136432231465 -0.7259513245896514 C 0.502999853791286 -0.7079686944745387 0.5117342741329124 -0.6622414350389676 0.5168721684515157 -0.6350105951503688 C 0.5271479570887226 -0.5790075470775904 0.5482133237949974 -0.507590816049001 0.5780131108428977 -0.4366878744522722 C 0.5816096368659199 -0.42795345411064645 0.6062715295952174 -0.3688676694467057 0.6098680556182395 -0.36013324910507927 C 0.6170611076642846 -0.3632159856962416 0.6114094239138207 -0.4243569280876234 0.6196300548235861 -0.4310361907018083 C 0.6874502598291529 -0.4813875550241229 0.779418568132156 -0.62267964878572 0.7814737258595977 -0.6309002796954855 C 0.7814737258595977 -0.6309002796954855 0.7814737258595977 -0.6314140691273462 0.781987515291458 -0.6314140691273462 C 0.7732530949498321 -0.6360381740140892 0.7650324640400669 -0.6411760683326928 0.7573256225621615 -0.6452863837875755 C 0.7439670973337923 -0.65196564640176 0.7336913086965852 -0.6745723814036158 0.7223879411956572 -0.6797102757222193 Z" fill="#4e888f" transform="matrix(1,0,0,1,0,0)" fill-rule="nonzero"></path></g></g></g></g><defs><clipPath id="SvgjsClipPath1002"><path d=" M -0.9094072943928256 -2.006828378217512 h 1.8188145887856513 v 1.819328378217512 h -1.8188145887856513 Z"></path></clipPath><clipPath id="SvgjsClipPath1000cd50e368-e860-4cd9-968e-ab1b0d943123"><path d=" M -0.9094072943928256 -2.006828378217512 L 0.9094072943928256 -2.006828378217512 L 0.9094072943928256 -0.1875 L -0.9094072943928256 -0.1875 Z"></path></clipPath></defs></svg>